<svg xmlns="http://www.w3.org/2000/svg" xmlns:xlink="http://www.w3.org/1999/xlink" viewBox="0 0 141.89 168.69"><defs><style>.cls-1{isolation:isolate;}.cls-2{opacity:0.21;mix-blend-mode:multiply;fill:url(#linear-gradient);}.cls-3{fill:#999;}.cls-4{fill:#ccc;}.cls-5{fill:#b3b3b3;}.cls-6{fill:#e6e6e6;}.cls-7{fill:#009245;}.cls-8{fill:#007f3c;}.cls-9{fill:#c69249;}.cls-10{fill:#f8b65b;}.cls-11{fill:#e7aa55;}.cls-12{fill:#face90;}</style><linearGradient id="linear-gradient" x1="0.01" y1="133.99" x2="108.11" y2="133.99" gradientUnits="userSpaceOnUse"><stop offset="0"/><stop offset="0.3" stop-color="#020202"/><stop offset="0.44" stop-color="#0a0a0a"/><stop offset="0.54" stop-color="#161616"/><stop offset="0.63" stop-color="#282828"/><stop offset="0.71" stop-color="#404040"/><stop offset="0.78" stop-color="#5d5d5d"/><stop offset="0.84" stop-color="gray"/><stop offset="0.9" stop-color="#a8a8a8"/><stop offset="0.96" stop-color="#d4d4d4"/><stop offset="1" stop-color="#fff"/></linearGradient></defs><g class="cls-1"><g id="圖層_2" data-name="圖層 2"><g id="圖層_1-2" data-name="圖層 1"><path class="cls-2" d="M108.08,136.69a7.84,7.84,0,0,0-.25-2.62c-2-7.2-13.77-12.35-27.15-12.21-1.16,0-2.33,0-3.5.15-8.55.66-15.57,3.38-19.57,7.06a25,25,0,0,0-2.78-1.49c3.45-2.38,5.51-5.31,5.62-8.43h0V114a.42.42,0,0,0,0,.1,7.89,7.89,0,0,0-.25-2.63c-2-7.19-13.76-12.34-27.15-12.21-1.16,0-2.33.06-3.5.15-13.59,1.06-23.34,7.3-23.15,14.38v5.35A7.65,7.65,0,0,0,6.65,121a.54.54,0,0,1,0,.1c1,3.45,4.25,6.42,8.84,8.56-3.43,2.36-5.47,5.28-5.6,8.39-6.22,2.71-10,6.83-9.91,11.28v5.35H0a8.17,8.17,0,0,0,.27,1.81l0,.1c2.25,7.77,15.91,13.11,30.62,12,13.26-1,22.86-7,23.14-13.86a22.51,22.51,0,0,0,6.32-4c5.83,3.64,15,5.66,24.56,4.9,13.29-1,22.89-7,23.15-13.89h0v-.09a1.92,1.92,0,0,0,0-.24V136.6ZM91.85,126.47h0Zm1.72.6h0l-.16-.06ZM54.36,144.74h0l.08-.06h0Zm-.91.64h0l.1-.07h0Zm-.36-27.59h0ZM50.89,120l-.08.06h0l.08-.06Zm-.88.63-.1.07h0l.1-.07Zm-1,.63-.16.09h0l.16-.09ZM24.3,123.75l-.28-.07Zm-.92-.25-.5-.14Zm-1.07-.32-.53-.17Zm-1.06-.36-.53-.2Zm-1-.4-.52-.23Zm-1-.44c-.18-.08-.35-.16-.51-.25C18.91,121.82,19.08,121.9,19.26,122Zm-.93-.46c-.17-.09-.34-.18-.5-.28C18,121.34,18.16,121.43,18.33,121.52Zm-.88-.49-.49-.32Zm-.82-.53-.51-.37Zm1.3,38.74-.28-.07ZM17,159l-.49-.14Zm-1.07-.32-.52-.17Zm-1-.37-.53-.19Zm-1-.4-.52-.22Zm-1-.43-.5-.24ZM12,157c-.17-.09-.34-.18-.5-.28C11.63,156.83,11.8,156.92,12,157Zm-.88-.5-.49-.31Zm-.82-.52c-.18-.12-.34-.24-.51-.37C9.93,155.75,10.09,155.87,10.27,156ZM64,142.86l.28.21-.28-.21Zm7.92,3.45-.26-.06Zm-.91-.25-.48-.13ZM70,145.74l-.52-.17Zm-1-.36-.53-.2Zm-1-.4-.52-.22Zm-1-.44-.5-.24Zm-.92-.46-.5-.27Zm-.88-.49-.49-.31Zm30.94-15.4.24.12h0l-.24-.12ZM12.78,116.26c.05.11.1.22.16.33l-.17-.31ZM13.84,118c-.13-.17-.26-.34-.38-.52C13.58,117.64,13.71,117.81,13.84,118Zm-.5-.7a5.09,5.09,0,0,1-.3-.5A5.09,5.09,0,0,0,13.34,117.28Zm1.14,1.43c-.19-.19-.36-.39-.53-.59C14.12,118.32,14.29,118.52,14.48,118.71ZM15.87,120c-.22-.17-.43-.34-.63-.52C15.44,119.61,15.65,119.78,15.87,120Zm-.7-.57-.65-.62Zm2.6,14.19h0l.1-.1Zm.93-.93.14-.13Zm1.25-1,.27-.18ZM6.42,151.75l.15.33c-.05-.11-.11-.21-.16-.31Zm1.06,1.71A3.75,3.75,0,0,1,7.1,153,3.75,3.75,0,0,0,7.48,153.46Zm-.5-.69c-.11-.16-.21-.33-.31-.5C6.77,152.44,6.87,152.61,7,152.77Zm1.14,1.43c-.19-.19-.36-.39-.53-.59C7.76,153.81,7.93,154,8.12,154.2Zm1.39,1.24c-.22-.17-.43-.34-.63-.52C9.08,155.1,9.29,155.27,9.51,155.44Zm-.7-.57c-.23-.21-.45-.41-.65-.62C8.36,154.46,8.58,154.66,8.81,154.87ZM78,125.05a37.88,37.88,0,0,1,12.46,1h0l.15,0h0l-.16,0a38.15,38.15,0,0,0-12.46-1c-.62,0-1.22.11-1.82.19C76.79,125.16,77.39,125.09,78,125.05Zm-5,.72-.43.1Zm-2.12.53-.16,0Zm-1.86.61-.39.15Zm-1.71.69-.29.13Zm-1.69.85-.3.17Zm-1.36.84-.26.18ZM63,130.34l-.14.13Zm-1,1-.08.1h0ZM30.35,102.48a38.15,38.15,0,0,1,12.46,1h0a38.43,38.43,0,0,0-12.46-1c-.61,0-1.21.12-1.8.19C29.14,102.6,29.74,102.53,30.35,102.48Zm-5,.73-.43.1Zm-2.11.53-.17,0Zm-1.87.61-.39.14Zm-1.71.69-.28.13Zm-1.69.85-.3.17Zm-1.35.84-.27.17Zm-1.38,1-.14.13Zm-1,1-.08.09h0A.94.94,0,0,0,14.3,108.74ZM8.93,143.26l-.14.13Zm-1,1-.08.09h0A.94.94,0,0,0,7.94,144.23Z"/><path class="cls-3" d="M54.09,140.55a1.92,1.92,0,0,0,0-.24v-4.79c-.21.56-.43,1.18-.64,1.77-1.12-2.74-3.67-5.14-7.19-7-5-2.69-12.07-4.28-19.6-4.2-1.16,0-2.33,0-3.5.14a39.48,39.48,0,0,0-15.32,4.11c-3.57,1.92-6.09,4.35-7.2,7L0,135.29v5.37H0a8.17,8.17,0,0,0,.27,1.81l0,.1c2.25,7.77,15.91,13.11,30.62,12,13.29-1,22.89-7,23.15-13.89h0Zm-7.82,4.58c-2.93,3.3-8.84,5.78-16.17,6.36a38.76,38.76,0,0,1-11.32-.75c-4.78-1.07-8.74-3.05-11-5.59A8.06,8.06,0,0,1,6,142,6,6,0,0,1,6,139a6.7,6.7,0,0,1,.43-1.26c1.75-3.83,7.24-7,14.59-8.16,1-.15,2-.26,3-.34a37.88,37.88,0,0,1,12.46,1c5.49,1.42,9.72,4.09,11.23,7.41a6.44,6.44,0,0,1-1.41,7.42Z"/><path class="cls-3" d="M46.27,145.13c-2.93,3.3-8.84,5.78-16.17,6.36a38.76,38.76,0,0,1-11.32-.75c-4.78-1.07-8.74-3.05-11-5.59,5.83,3.13,14.3,4.78,23.14,4.09A39.31,39.31,0,0,0,46.27,145.13Z"/><path class="cls-4" d="M53.81,133c-2-7.19-13.76-12.34-27.15-12.21-1.16,0-2.33.06-3.5.15-14.78,1.16-25,8.43-22.88,16.25,0,0,0,.07,0,.11a4,4,0,0,0,.15.45c1,2.91,3.65,5.46,7.33,7.41,5.83,3.13,14.3,4.78,23.14,4.09a39.31,39.31,0,0,0,15.33-4.11c3.75-2,6.36-4.59,7.36-7.43A7.72,7.72,0,0,0,53.81,133Zm-6.13,4.72c-2,4.33-8.74,7.8-17.58,8.49a38.75,38.75,0,0,1-11.32-.76c-6-1.34-10.74-4.13-12.37-7.67a8.71,8.71,0,0,1-.38-1,6.06,6.06,0,0,1,0-3,7.69,7.69,0,0,1,1.86-3.41c2.52-2.83,7.23-5.07,13.16-6,1-.15,2-.28,3-.36a38.15,38.15,0,0,1,12.46,1c4.25,1.11,7.75,3,9.81,5.28a8,8,0,0,1,1.8,3.16A6.11,6.11,0,0,1,47.68,137.71Z"/><path class="cls-5" d="M24,124c-1,.08-2,.2-3,.36-8.15,1.28-14,5-15,9.41a6,6,0,0,0,.06,3c1.11,4,6.13,7.24,12.74,8.72-6-1.58-10.56-4.65-11.61-8.44a6.16,6.16,0,0,1,.37-4.25c1.56-3.43,6.12-6.32,12.33-7.72a36.28,36.28,0,0,1,5.26-.79,38.73,38.73,0,0,1,11.32.75A38.43,38.43,0,0,0,24,124Z"/><path class="cls-6" d="M36.45,125a38.73,38.73,0,0,0-11.32-.75,36.28,36.28,0,0,0-5.26.79c-6.21,1.4-10.77,4.29-12.33,7.72A6.16,6.16,0,0,0,7.17,137c1.05,3.79,5.57,6.86,11.61,8.44a38.76,38.76,0,0,0,11.32.75c11.61-.91,19.65-6.62,18-12.76C47,129.65,42.49,126.58,36.45,125Z"/><path class="cls-5" d="M36.45,125c6,1.58,10.56,4.65,11.61,8.44,1.69,6.14-6.35,11.85-18,12.76a38.76,38.76,0,0,1-11.32-.75,38.43,38.43,0,0,0,12.46,1c11.6-.91,19.64-6.62,18-12.76C48.09,129.69,43.06,126.48,36.45,125Z"/><path class="cls-5" d="M34.41,142.52l-2.11-1.75a19.52,19.52,0,0,1-5.95.93l-.61-1.43a17.8,17.8,0,0,0,5.63-.85c2.34-.79,3.06-2,1.87-3s-3.13-1.12-6.19-.82c-4.19.44-7.23.34-9-1.18s-1.11-3.19,1.61-4.47l-2.11-1.75,2-.69,2,1.69a17.54,17.54,0,0,1,5-.83l.55,1.42a16.23,16.23,0,0,0-4.85.8c-2.53.86-2.53,2-1.69,2.67,1.08.91,2.84.95,6.45.61,4.27-.41,7.06-.08,8.92,1.46,1.65,1.38,1.38,3.27-1.65,4.71l2.17,1.81Z"/><path class="cls-7" d="M63.55,129.65c1.59-9.66,3.58-19.07,5.85-28.49s4.85-18.72,7.85-27.9a237,237,0,0,1,10.49-27,137,137,0,0,1,6.75-12.8,95.21,95.21,0,0,1,8.26-11.83,93.91,93.91,0,0,0-7.46,12.28A136.54,136.54,0,0,0,89.44,47a232.64,232.64,0,0,0-8.66,27.3c-2.38,9.24-4.32,18.6-6,28s-3,18.89-3.94,28.26Z"/><path class="cls-7" d="M82,62.19S76.28,5.88,141.65,0C141.65,0,149,49,82,62.19Z"/><path class="cls-7" d="M81.83,67.58s0-42.48-39.77-33.12c0,0-17.15,6.12-20.19,7.67C17.32,44.45,24.51,71,81.83,67.58Z"/><path class="cls-8" d="M81.83,67.58a152.46,152.46,0,0,0-13.26-9.27,110,110,0,0,0-14.13-7.53A73.51,73.51,0,0,0,47,47.91a70.34,70.34,0,0,0-7.68-2.11l-2-.4-2-.31c-.66-.13-1.32-.19-2-.27s-1.33-.17-2-.2a70.18,70.18,0,0,0-8.09-.18,42.9,42.9,0,0,1,16.37-.76,59.7,59.7,0,0,1,15.86,4.58c2.5,1.14,5,2.37,7.34,3.75a80.7,80.7,0,0,1,6.88,4.52A68,68,0,0,1,81.83,67.58Z"/><path class="cls-8" d="M82,62.19A155.93,155.93,0,0,1,93.71,43.85c1.05-1.48,2.18-2.91,3.29-4.35s2.26-2.85,3.41-4.25,2.32-2.8,3.54-4.16,2.39-2.75,3.63-4.08a165.58,165.58,0,0,1,15.89-15A107.77,107.77,0,0,1,141.65,0a215.31,215.31,0,0,0-16.78,13.66c-1.33,1.21-2.6,2.48-3.92,3.7l-2,1.84-1.89,1.93c-1.25,1.29-2.56,2.51-3.79,3.83l-3.7,3.93c-2.43,2.65-4.87,5.3-7.2,8s-4.67,5.48-7,8.24Q88.54,53.53,82,62.19Z"/><path class="cls-9" d="M60.46,105.06v-5c-.22.56-.44,1.18-.65,1.77-1.12-2.74-3.67-5.14-7.19-7-5-2.69-12.07-4.28-19.6-4.2-1.16,0-2.33,0-3.5.14A39.48,39.48,0,0,0,14.2,94.84c-3.57,1.92-6.09,4.35-7.2,7L6.37,99.8v5.37h0A7.65,7.65,0,0,0,6.65,107a.54.54,0,0,1,0,.1c2.25,7.77,15.91,13.11,30.63,12,13.28-1,22.89-7,23.14-13.89h0Zm-7.83,4.58c-2.92,3.3-8.83,5.78-16.16,6.36a38.71,38.71,0,0,1-11.32-.75c-4.79-1.07-8.75-3-11-5.59a8.06,8.06,0,0,1-1.76-3.13,6,6,0,0,1-.06-3,7.5,7.5,0,0,1,.43-1.26c1.75-3.83,7.24-7,14.59-8.16,1-.15,2-.26,3-.34a37.88,37.88,0,0,1,12.46,1c5.49,1.42,9.72,4.09,11.23,7.41a5.82,5.82,0,0,1,.38,1A6.7,6.7,0,0,1,52.63,109.64Z"/><path class="cls-9" d="M52.63,109.64c-2.92,3.3-8.83,5.78-16.16,6.36a38.71,38.71,0,0,1-11.32-.75c-4.79-1.07-8.75-3-11-5.59,5.84,3.13,14.3,4.78,23.15,4.09A39.31,39.31,0,0,0,52.63,109.64Z"/><path class="cls-10" d="M60.17,97.5c-2-7.19-13.76-12.34-27.15-12.21-1.16,0-2.33.06-3.5.15-14.78,1.16-25,8.43-22.87,16.25a.61.61,0,0,0,0,.11l.15.45c1,2.91,3.65,5.46,7.33,7.41,5.84,3.13,14.3,4.78,23.15,4.09a39.31,39.31,0,0,0,15.32-4.11c3.76-2,6.36-4.59,7.36-7.43A7.72,7.72,0,0,0,60.17,97.5ZM54,102.22c-2,4.33-8.74,7.8-17.57,8.49A38.7,38.7,0,0,1,25.15,110c-6-1.34-10.75-4.13-12.38-7.67a7.19,7.19,0,0,1-.37-1,6,6,0,0,1-.06-3,7.69,7.69,0,0,1,1.86-3.41c2.52-2.83,7.23-5.07,13.16-6,1-.15,2-.28,3-.36a38.15,38.15,0,0,1,12.46,1c4.25,1.11,7.75,3,9.81,5.28A8,8,0,0,1,54.42,98,6.05,6.05,0,0,1,54,102.22Z"/><path class="cls-11" d="M30.35,88.48c-1,.08-2,.2-3,.36-8.15,1.28-14,5-15,9.41a6,6,0,0,0,.06,3c1.11,4,6.14,7.24,12.74,8.72-6-1.58-10.56-4.65-11.6-8.44a6.1,6.1,0,0,1,.36-4.25C15.47,93.84,20,91,26.23,89.55a36.7,36.7,0,0,1,5.26-.79,38.73,38.73,0,0,1,11.32.75A38.43,38.43,0,0,0,30.35,88.48Z"/><path class="cls-12" d="M42.81,89.51a38.73,38.73,0,0,0-11.32-.75,36.7,36.7,0,0,0-5.26.79C20,91,15.47,93.84,13.9,97.27a6.1,6.1,0,0,0-.36,4.25c1,3.79,5.56,6.86,11.6,8.44a38.8,38.8,0,0,0,11.33.75c11.6-.91,19.64-6.62,18-12.76C53.38,94.16,48.85,91.09,42.81,89.51Z"/><path class="cls-11" d="M42.81,89.51c6,1.58,10.57,4.65,11.61,8.44,1.69,6.14-6.35,11.85-18,12.76A38.8,38.8,0,0,1,25.14,110a38.45,38.45,0,0,0,12.46,1c11.61-.91,19.64-6.62,18-12.76C54.45,94.2,49.42,91,42.81,89.51Z"/><path class="cls-10" d="M40.77,107l-2.11-1.75a19.52,19.52,0,0,1-5.95.93l-.61-1.43a17.9,17.9,0,0,0,5.64-.85c2.33-.79,3.06-2,1.87-3s-3.14-1.11-6.2-.82c-4.19.44-7.22.34-9-1.18s-1.1-3.19,1.61-4.47l-2.11-1.75,2-.69,2,1.69a17.43,17.43,0,0,1,5-.83l.56,1.42a16.05,16.05,0,0,0-4.86.81c-2.53.85-2.52,2-1.69,2.66,1.08.91,2.84,1,6.46.61,4.26-.41,7.06-.08,8.91,1.46,1.65,1.38,1.38,3.27-1.65,4.71l2.17,1.81Z"/><path class="cls-9" d="M60.46,98.8v-5c-.22.56-.44,1.18-.65,1.77-1.12-2.74-3.67-5.14-7.19-7-5-2.69-12.07-4.28-19.6-4.2-1.16,0-2.33,0-3.5.14A39.48,39.48,0,0,0,14.2,88.58c-3.57,1.92-6.09,4.35-7.2,7l-.63-2.06v5.37h0a7.65,7.65,0,0,0,.28,1.81.54.54,0,0,1,0,.1c2.25,7.77,15.91,13.11,30.63,12,13.28-1,22.89-7,23.14-13.9h0Zm-7.83,4.58c-2.92,3.29-8.83,5.78-16.16,6.36A38.71,38.71,0,0,1,25.15,109c-4.79-1.07-8.75-3-11-5.59a8.06,8.06,0,0,1-1.76-3.13,6,6,0,0,1-.06-3A7.92,7.92,0,0,1,12.77,96c1.75-3.82,7.24-7,14.59-8.15,1-.15,2-.26,3-.34a37.88,37.88,0,0,1,12.46,1C48.3,90,52.53,92.64,54,96a5.82,5.82,0,0,1,.38,1A6.7,6.7,0,0,1,52.63,103.38Z"/><path class="cls-9" d="M52.63,103.38c-2.92,3.29-8.83,5.78-16.16,6.36A38.71,38.71,0,0,1,25.15,109c-4.79-1.07-8.75-3-11-5.59,5.84,3.13,14.3,4.78,23.15,4.09A39.31,39.31,0,0,0,52.63,103.38Z"/><path class="cls-10" d="M60.17,91.24C58.19,84.05,46.41,78.9,33,79c-1.16,0-2.33.06-3.5.15-14.78,1.16-25,8.43-22.87,16.25a.61.61,0,0,0,0,.11l.15.45c1,2.91,3.65,5.46,7.33,7.41,5.84,3.13,14.3,4.78,23.15,4.09a39.31,39.31,0,0,0,15.32-4.11c3.76-2,6.36-4.59,7.36-7.43A7.72,7.72,0,0,0,60.17,91.24ZM54,96c-2,4.33-8.74,7.8-17.57,8.49a38.7,38.7,0,0,1-11.32-.76c-6-1.34-10.75-4.13-12.38-7.68a6.68,6.68,0,0,1-.37-1,6,6,0,0,1-.06-3,7.69,7.69,0,0,1,1.86-3.41c2.52-2.83,7.23-5.07,13.16-6,1-.15,2-.28,3-.36a38.15,38.15,0,0,1,12.46,1c4.25,1.11,7.75,3,9.81,5.28a8,8,0,0,1,1.8,3.16A6.05,6.05,0,0,1,54,96Z"/><path class="cls-11" d="M30.35,82.22c-1,.08-2,.2-3,.36-8.15,1.28-14,5-15,9.41a6,6,0,0,0,.06,3c1.11,4,6.14,7.24,12.74,8.72-6-1.58-10.56-4.65-11.6-8.44A6.1,6.1,0,0,1,13.9,91c1.57-3.43,6.12-6.32,12.33-7.72a36.7,36.7,0,0,1,5.26-.79,38.73,38.73,0,0,1,11.32.75A38.43,38.43,0,0,0,30.35,82.22Z"/><path class="cls-12" d="M42.81,83.25a38.73,38.73,0,0,0-11.32-.75,36.7,36.7,0,0,0-5.26.79C20,84.69,15.47,87.58,13.9,91a6.1,6.1,0,0,0-.36,4.25c1,3.79,5.56,6.86,11.6,8.44a38.8,38.8,0,0,0,11.33.75c11.6-.91,19.64-6.62,18-12.76C53.38,87.9,48.85,84.83,42.81,83.25Z"/><path class="cls-11" d="M42.81,83.25c6,1.58,10.57,4.65,11.61,8.44,1.69,6.14-6.35,11.85-18,12.76a38.8,38.8,0,0,1-11.33-.75,38.45,38.45,0,0,0,12.46,1c11.61-.91,19.64-6.62,18-12.76C54.45,87.94,49.42,84.73,42.81,83.25Z"/><path class="cls-10" d="M40.77,100.77,38.66,99a19.52,19.52,0,0,1-5.95.93l-.61-1.43a17.9,17.9,0,0,0,5.64-.85c2.33-.79,3.06-2,1.87-3s-3.14-1.12-6.2-.82c-4.19.44-7.22.34-9-1.18s-1.1-3.19,1.61-4.47l-2.11-1.75,2-.69,2,1.69a17.43,17.43,0,0,1,5-.83L33.5,88a16.29,16.29,0,0,0-4.86.8c-2.53.86-2.52,2-1.69,2.67,1.08.91,2.84,1,6.46.61,4.26-.41,7.06-.08,8.91,1.46,1.65,1.38,1.38,3.27-1.65,4.71l2.17,1.81Z"/><path class="cls-9" d="M60.46,92.54v-5c-.22.56-.44,1.18-.65,1.77-1.12-2.74-3.67-5.14-7.19-7-5-2.69-12.07-4.28-19.6-4.21-1.16,0-2.33.06-3.5.15A39.48,39.48,0,0,0,14.2,82.32c-3.57,1.92-6.09,4.35-7.2,7l-.63-2.06v5.37h0a7.65,7.65,0,0,0,.28,1.81.54.54,0,0,1,0,.1c2.25,7.77,15.91,13.11,30.63,12,13.28-1,22.89-7,23.14-13.9h0Zm-7.83,4.57c-2.92,3.3-8.83,5.79-16.16,6.37a38.71,38.71,0,0,1-11.32-.75c-4.79-1.07-8.75-3-11-5.59A8.06,8.06,0,0,1,12.4,94a6,6,0,0,1-.06-3,7.92,7.92,0,0,1,.43-1.27c1.75-3.82,7.24-7,14.59-8.15,1-.15,2-.26,3-.34a37.88,37.88,0,0,1,12.46,1C48.3,83.71,52.53,86.38,54,89.7a5.82,5.82,0,0,1,.38,1A6.68,6.68,0,0,1,52.63,97.11Z"/><path class="cls-9" d="M52.63,97.11c-2.92,3.3-8.83,5.79-16.16,6.37a38.71,38.71,0,0,1-11.32-.75c-4.79-1.07-8.75-3-11-5.59,5.84,3.13,14.3,4.78,23.15,4.09A39.13,39.13,0,0,0,52.63,97.11Z"/><path class="cls-10" d="M60.17,85c-2-7.19-13.76-12.34-27.15-12.21-1.16,0-2.33.06-3.5.15-14.78,1.16-25,8.43-22.87,16.25a.61.61,0,0,0,0,.11l.15.45c1,2.91,3.65,5.46,7.33,7.41,5.84,3.13,14.3,4.78,23.15,4.09a39.13,39.13,0,0,0,15.32-4.12c3.76-2,6.36-4.59,7.36-7.42A7.72,7.72,0,0,0,60.17,85ZM54,89.7c-2,4.33-8.74,7.8-17.57,8.49a38.7,38.7,0,0,1-11.32-.76c-6-1.34-10.75-4.13-12.38-7.68a6.68,6.68,0,0,1-.37-1,6,6,0,0,1-.06-3,7.69,7.69,0,0,1,1.86-3.41c2.52-2.83,7.23-5.07,13.16-6,1-.16,2-.28,3-.36a38.15,38.15,0,0,1,12.46,1c4.25,1.11,7.75,3,9.81,5.28a8,8,0,0,1,1.8,3.16A6.05,6.05,0,0,1,54,89.7Z"/><path class="cls-11" d="M30.35,76c-1,.08-2,.2-3,.36-8.15,1.28-14,5-15,9.41a6,6,0,0,0,.06,3c1.11,4,6.14,7.24,12.74,8.72-6-1.58-10.56-4.65-11.6-8.44a6.1,6.1,0,0,1,.36-4.25C15.47,81.32,20,78.43,26.23,77a35.35,35.35,0,0,1,5.26-.79A38.73,38.73,0,0,1,42.81,77,38.43,38.43,0,0,0,30.35,76Z"/><path class="cls-12" d="M42.81,77a38.73,38.73,0,0,0-11.32-.75,35.35,35.35,0,0,0-5.26.79C20,78.43,15.47,81.32,13.9,84.75A6.1,6.1,0,0,0,13.54,89c1,3.79,5.56,6.86,11.6,8.44a38.8,38.8,0,0,0,11.33.75c11.6-.91,19.64-6.62,18-12.76C53.38,81.64,48.85,78.57,42.81,77Z"/><path class="cls-11" d="M42.81,77c6,1.58,10.57,4.65,11.61,8.44,1.69,6.14-6.35,11.85-18,12.76a38.8,38.8,0,0,1-11.33-.75,38.45,38.45,0,0,0,12.46,1c11.61-.91,19.64-6.62,18-12.76C54.45,81.68,49.42,78.47,42.81,77Z"/><path class="cls-10" d="M40.77,94.51l-2.11-1.75a19.83,19.83,0,0,1-5.95.93l-.61-1.43a17.9,17.9,0,0,0,5.64-.85c2.33-.79,3.06-2,1.87-3s-3.14-1.12-6.2-.82c-4.19.44-7.22.34-9-1.18S23.27,83.2,26,81.92l-2.11-1.75,2-.69,2,1.69a17.43,17.43,0,0,1,5-.83l.56,1.42a16.29,16.29,0,0,0-4.86.8c-2.53.86-2.52,2-1.69,2.67,1.08.91,2.84,1,6.46.61,4.26-.41,7.06-.08,8.91,1.46C44,88.68,43.7,90.57,40.67,92l2.17,1.81Z"/><path class="cls-9" d="M60.41,84.66v-5c-.21.55-.44,1.17-.64,1.76-1.12-2.74-3.67-5.14-7.19-7C47.52,71.7,40.5,70.11,33,70.19c-1.16,0-2.33,0-3.51.14a39.43,39.43,0,0,0-15.31,4.11c-3.58,1.92-6.09,4.35-7.2,7L6.32,79.4v5.37h0a8.11,8.11,0,0,0,.28,1.81s0,.08,0,.1c2.25,7.77,15.91,13.12,30.62,12,13.28-1,22.89-7,23.15-13.89h0Zm-7.83,4.58c-2.92,3.3-8.83,5.78-16.16,6.36a38.39,38.39,0,0,1-11.32-.75c-4.79-1.07-8.74-3-11-5.58a8.14,8.14,0,0,1-1.75-3.14,6,6,0,0,1-.07-3,7.35,7.35,0,0,1,.44-1.27c1.75-3.83,7.24-7,14.59-8.15,1-.16,2-.27,3-.35a38.15,38.15,0,0,1,12.46,1c5.49,1.43,9.72,4.09,11.23,7.41a6.43,6.43,0,0,1-1.42,7.42Z"/><path class="cls-9" d="M52.58,89.24c-2.92,3.3-8.83,5.78-16.16,6.36a38.39,38.39,0,0,1-11.32-.75c-4.79-1.07-8.74-3-11-5.58C20,92.39,28.41,94,37.26,93.36A39.38,39.38,0,0,0,52.58,89.24Z"/><path class="cls-10" d="M60.13,77.1c-2-7.19-13.77-12.34-27.15-12.21-1.16,0-2.33.06-3.51.16C14.69,66.2,4.46,73.47,6.6,81.29a.49.49,0,0,0,0,.11,4,4,0,0,0,.15.45c1,2.91,3.65,5.46,7.32,7.42C20,92.39,28.41,94,37.26,93.36a39.38,39.38,0,0,0,15.32-4.12c3.76-2,6.36-4.59,7.36-7.43A7.64,7.64,0,0,0,60.13,77.1ZM54,81.82c-2,4.33-8.75,7.8-17.58,8.49a39.08,39.08,0,0,1-11.32-.75c-6-1.35-10.75-4.14-12.37-7.68a8.12,8.12,0,0,1-.38-1,6.19,6.19,0,0,1-.06-3,7.87,7.87,0,0,1,1.87-3.41c2.51-2.83,7.23-5.07,13.16-6,1-.15,2-.28,3-.36a38.43,38.43,0,0,1,12.46,1c4.25,1.11,7.75,3,9.81,5.28a8.08,8.08,0,0,1,1.8,3.16A6.11,6.11,0,0,1,54,81.82Z"/><path class="cls-11" d="M30.31,68.09c-1,.08-2,.2-3,.35-8.15,1.28-14,5-15,9.41a6.07,6.07,0,0,0,.07,3c1.1,4,6.13,7.24,12.74,8.72-6-1.58-10.57-4.65-11.61-8.44a6.11,6.11,0,0,1,.37-4.25c1.56-3.43,6.12-6.32,12.33-7.72a37.71,37.71,0,0,1,5.26-.79,38.75,38.75,0,0,1,11.32.76A37.88,37.88,0,0,0,30.31,68.09Z"/><path class="cls-12" d="M42.77,69.12a38.75,38.75,0,0,0-11.32-.76,37.71,37.71,0,0,0-5.26.79c-6.21,1.4-10.77,4.29-12.33,7.72a6.11,6.11,0,0,0-.37,4.25c1,3.79,5.57,6.86,11.61,8.44a38.73,38.73,0,0,0,11.32.75c11.61-.91,19.64-6.62,18-12.76C53.33,73.76,48.81,70.69,42.77,69.12Z"/><path class="cls-11" d="M42.77,69.12c6,1.57,10.56,4.64,11.61,8.43,1.68,6.14-6.35,11.85-18,12.76a38.73,38.73,0,0,1-11.32-.75,38.43,38.43,0,0,0,12.46,1C49.16,89.68,57.2,84,55.51,77.83,54.4,73.8,49.38,70.59,42.77,69.12Z"/><path class="cls-10" d="M40.72,86.64l-2.1-1.76a19.52,19.52,0,0,1-5.95.93l-.61-1.43a17.84,17.84,0,0,0,5.63-.85c2.34-.78,3.06-2,1.87-3s-3.14-1.11-6.2-.82c-4.19.44-7.22.34-9-1.17s-1.11-3.19,1.61-4.47l-2.11-1.76,2-.69,2,1.69a17.54,17.54,0,0,1,5-.83l.55,1.42a16.28,16.28,0,0,0-4.85.81c-2.53.85-2.53,2-1.69,2.66,1.08.91,2.84,1,6.45.61,4.27-.41,7.06-.08,8.92,1.47,1.65,1.37,1.38,3.26-1.65,4.7l2.17,1.81Z"/><path class="cls-9" d="M108.11,127.62a1.92,1.92,0,0,0,0-.24V122.6c-.21.55-.44,1.17-.64,1.76-1.12-2.73-3.67-5.13-7.19-7-5.06-2.69-12.07-4.27-19.6-4.2-1.16,0-2.33,0-3.5.14a39.43,39.43,0,0,0-15.32,4.12c-3.57,1.91-6.09,4.34-7.2,7L54,122.36v5.38h0a8.09,8.09,0,0,0,.27,1.8.76.76,0,0,1,0,.11c2.25,7.76,15.91,13.11,30.62,11.95,13.29-1,22.89-7,23.15-13.89h0Zm-7.82,4.58c-2.93,3.3-8.84,5.79-16.17,6.37a38.72,38.72,0,0,1-11.32-.76c-4.78-1.06-8.74-3-11-5.58a8.14,8.14,0,0,1-1.76-3.13,6,6,0,0,1-.06-3,6.55,6.55,0,0,1,.43-1.27c1.75-3.83,7.24-7,14.59-8.15,1-.15,2-.27,3-.35a38.15,38.15,0,0,1,12.46,1c5.49,1.43,9.72,4.09,11.23,7.41a6.44,6.44,0,0,1-1.41,7.42Z"/><path class="cls-9" d="M100.29,132.2c-2.93,3.3-8.84,5.79-16.17,6.37a38.72,38.72,0,0,1-11.32-.76c-4.78-1.06-8.74-3-11-5.58,5.83,3.12,14.3,4.78,23.14,4.09A39.31,39.31,0,0,0,100.29,132.2Z"/><path class="cls-10" d="M107.83,120.07c-2-7.2-13.77-12.35-27.15-12.22-1.16,0-2.33.06-3.5.16-14.78,1.15-25,8.42-22.88,16.24,0,0,0,.07,0,.11s.09.3.15.46c1,2.9,3.65,5.45,7.33,7.41,5.83,3.12,14.3,4.78,23.14,4.09a39.31,39.31,0,0,0,15.33-4.12c3.75-2,6.36-4.59,7.36-7.43A7.68,7.68,0,0,0,107.83,120.07Zm-6.13,4.71c-2,4.33-8.75,7.8-17.58,8.49a38.73,38.73,0,0,1-11.32-.75c-6-1.34-10.74-4.14-12.37-7.68a7.6,7.6,0,0,1-.38-1,6.06,6.06,0,0,1,0-3,7.66,7.66,0,0,1,1.86-3.4c2.52-2.84,7.23-5.07,13.16-6,1-.15,2-.27,3-.35a37.88,37.88,0,0,1,12.46,1c4.25,1.1,7.75,3,9.81,5.27a8,8,0,0,1,1.8,3.17A6.09,6.09,0,0,1,101.7,124.78Z"/><path class="cls-11" d="M78,111.05c-1,.08-2,.2-3,.35-8.15,1.29-14,5-15,9.41a6.07,6.07,0,0,0,.07,3c1.11,4,6.13,7.25,12.74,8.72-6-1.58-10.56-4.64-11.61-8.44a6.17,6.17,0,0,1,.37-4.25c1.56-3.42,6.12-6.32,12.33-7.72a37.71,37.71,0,0,1,5.26-.79,38.75,38.75,0,0,1,11.32.76A38.15,38.15,0,0,0,78,111.05Z"/><path class="cls-12" d="M90.47,112.08a38.75,38.75,0,0,0-11.32-.76,37.71,37.71,0,0,0-5.26.79c-6.21,1.4-10.77,4.3-12.33,7.72a6.17,6.17,0,0,0-.37,4.25c1.05,3.8,5.57,6.86,11.61,8.44a38.76,38.76,0,0,0,11.32.75c11.61-.9,19.65-6.62,18-12.75C101,116.72,96.51,113.65,90.47,112.08Z"/><path class="cls-11" d="M90.47,112.08c6,1.57,10.56,4.64,11.61,8.44,1.69,6.13-6.35,11.85-18,12.75a38.76,38.76,0,0,1-11.32-.75,38.15,38.15,0,0,0,12.46,1c11.6-.91,19.64-6.62,17.95-12.76C102.11,116.76,97.08,113.55,90.47,112.08Z"/><path class="cls-10" d="M88.42,129.6l-2.1-1.76a19.22,19.22,0,0,1-5.95.93l-.61-1.43a17.84,17.84,0,0,0,5.63-.85c2.34-.78,3.06-2,1.87-3s-3.14-1.11-6.2-.81c-4.18.43-7.22.33-9-1.18s-1.11-3.19,1.61-4.47l-2.11-1.76,2-.68,2,1.68a17.9,17.9,0,0,1,5-.83l.55,1.42a16.33,16.33,0,0,0-4.85.81c-2.53.85-2.53,2-1.69,2.67,1.08.9,2.84.94,6.45.6,4.27-.41,7.06-.08,8.92,1.47,1.65,1.37,1.38,3.27-1.65,4.7l2.17,1.81Z"/><path class="cls-3" d="M117.52,119.33v-5c-.22.56-.44,1.18-.65,1.77-1.12-2.74-3.67-5.14-7.19-7-5.05-2.69-12.07-4.28-19.6-4.2-1.16,0-2.33,0-3.5.14a39.48,39.48,0,0,0-15.32,4.11c-3.57,1.92-6.09,4.35-7.2,7l-.63-2.06v5.37h0a7.65,7.65,0,0,0,.28,1.81l0,.1c2.25,7.77,15.91,13.11,30.63,12,13.28-1,22.89-7,23.14-13.9h0Zm-7.83,4.58c-2.92,3.29-8.83,5.78-16.17,6.36a38.76,38.76,0,0,1-11.32-.75c-4.78-1.07-8.74-3.05-11-5.59a8.06,8.06,0,0,1-1.76-3.13,6,6,0,0,1-.06-3,6.7,6.7,0,0,1,.43-1.26c1.75-3.83,7.24-7,14.59-8.16,1-.15,2-.26,3-.34a37.88,37.88,0,0,1,12.46,1c5.49,1.42,9.72,4.09,11.23,7.41a6.44,6.44,0,0,1-1.41,7.42Z"/><path class="cls-3" d="M109.69,123.91c-2.92,3.29-8.83,5.78-16.17,6.36a38.76,38.76,0,0,1-11.32-.75c-4.78-1.07-8.74-3.05-11-5.59,5.84,3.13,14.3,4.78,23.15,4.09A39.31,39.31,0,0,0,109.69,123.91Z"/><path class="cls-4" d="M117.23,111.77c-2-7.19-13.76-12.34-27.15-12.21-1.16,0-2.33.06-3.5.15-14.78,1.16-25,8.43-22.87,16.25a.61.61,0,0,0,0,.11c0,.15.1.3.15.45,1,2.91,3.65,5.46,7.33,7.41,5.84,3.13,14.3,4.78,23.15,4.09a39.31,39.31,0,0,0,15.32-4.11c3.75-2,6.36-4.59,7.36-7.43A7.72,7.72,0,0,0,117.23,111.77Zm-6.13,4.72c-2,4.33-8.74,7.8-17.58,8.49a38.75,38.75,0,0,1-11.32-.76c-6-1.34-10.74-4.13-12.37-7.67a7.19,7.19,0,0,1-.37-1,6,6,0,0,1-.06-3,7.69,7.69,0,0,1,1.86-3.41c2.52-2.83,7.23-5.07,13.16-6,1-.15,2-.28,3-.36a38.15,38.15,0,0,1,12.46,1c4.25,1.11,7.75,3,9.81,5.28a8,8,0,0,1,1.8,3.16A6.05,6.05,0,0,1,111.1,116.49Z"/><path class="cls-5" d="M87.41,102.75c-1,.08-2,.2-3,.36-8.15,1.28-14,5-15,9.41a6,6,0,0,0,.06,3c1.11,4,6.14,7.24,12.74,8.72-6-1.58-10.56-4.65-11.61-8.44a6.16,6.16,0,0,1,.37-4.25c1.56-3.43,6.12-6.32,12.33-7.72a36.49,36.49,0,0,1,5.26-.79,38.73,38.73,0,0,1,11.32.75A38.43,38.43,0,0,0,87.41,102.75Z"/><path class="cls-6" d="M99.87,103.78A38.73,38.73,0,0,0,88.55,103a36.49,36.49,0,0,0-5.26.79c-6.21,1.4-10.77,4.29-12.33,7.72a6.16,6.16,0,0,0-.37,4.25c1,3.79,5.57,6.86,11.61,8.44a38.8,38.8,0,0,0,11.33.75c11.6-.91,19.64-6.62,18-12.76C110.44,108.43,105.91,105.36,99.87,103.78Z"/><path class="cls-5" d="M99.87,103.78c6,1.58,10.57,4.65,11.61,8.44,1.69,6.14-6.35,11.85-18,12.76a38.8,38.8,0,0,1-11.33-.75,38.43,38.43,0,0,0,12.46,1c11.6-.91,19.64-6.62,18-12.76C111.51,108.47,106.48,105.26,99.87,103.78Z"/><path class="cls-5" d="M97.83,121.3l-2.11-1.75a19.52,19.52,0,0,1-6,.93l-.61-1.43a17.8,17.8,0,0,0,5.63-.85c2.34-.79,3.06-2,1.88-3s-3.14-1.12-6.2-.82c-4.19.44-7.22.34-9-1.18S80.33,110,83,108.71L80.93,107l2-.69L85,108a17.43,17.43,0,0,1,5-.83l.56,1.42a16.24,16.24,0,0,0-4.86.8c-2.53.86-2.53,2-1.69,2.67,1.08.91,2.84,1,6.46.61,4.26-.41,7-.08,8.91,1.46,1.65,1.38,1.38,3.27-1.65,4.71l2.17,1.81Z"/><path class="cls-9" d="M110.76,109.43v-5c-.21.55-.44,1.17-.64,1.76-1.12-2.73-3.67-5.13-7.19-7-5.06-2.69-12.08-4.28-19.6-4.21-1.16,0-2.33.05-3.51.15a39.43,39.43,0,0,0-15.31,4.11c-3.58,1.91-6.09,4.35-7.2,7l-.64-2.06v5.37h0a8.2,8.2,0,0,0,.28,1.81.42.42,0,0,1,0,.1c2.25,7.77,15.91,13.11,30.62,12,13.28-1,22.89-7,23.15-13.9h0ZM102.93,114c-2.92,3.3-8.83,5.79-16.16,6.37a38.72,38.72,0,0,1-11.32-.76c-4.79-1.06-8.74-3-11-5.58a8,8,0,0,1-1.75-3.13,6.07,6.07,0,0,1-.07-3,7.65,7.65,0,0,1,.44-1.27c1.75-3.83,7.24-7,14.59-8.15,1-.15,2-.27,3-.35a38.15,38.15,0,0,1,12.46,1c5.49,1.43,9.72,4.09,11.23,7.41a7.15,7.15,0,0,1,.38,1A6.7,6.7,0,0,1,102.93,114Z"/><path class="cls-9" d="M102.93,114c-2.92,3.3-8.83,5.79-16.16,6.37a38.72,38.72,0,0,1-11.32-.76c-4.79-1.06-8.74-3-11-5.58,5.84,3.13,14.31,4.78,23.15,4.09A39.21,39.21,0,0,0,102.93,114Z"/><path class="cls-10" d="M110.48,101.88c-2-7.19-13.77-12.34-27.15-12.21q-1.74,0-3.51.15C65,91,54.81,98.25,57,106.06a.36.36,0,0,0,0,.11,3.53,3.53,0,0,0,.15.46c1,2.91,3.65,5.45,7.32,7.41,5.84,3.13,14.31,4.78,23.15,4.09A39.21,39.21,0,0,0,102.93,114c3.76-2,6.36-4.59,7.37-7.42A7.72,7.72,0,0,0,110.48,101.88Zm-6.13,4.71c-2,4.33-8.75,7.81-17.58,8.5a38.72,38.72,0,0,1-11.32-.76c-6-1.34-10.75-4.13-12.37-7.68a7.6,7.6,0,0,1-.38-1,6.15,6.15,0,0,1-.06-3,7.81,7.81,0,0,1,1.87-3.41c2.51-2.84,7.23-5.07,13.16-6,1-.15,2-.27,3-.35a38.15,38.15,0,0,1,12.46,1c4.25,1.11,7.75,3,9.81,5.28a8.08,8.08,0,0,1,1.8,3.16A6.08,6.08,0,0,1,104.35,106.59Z"/><path class="cls-11" d="M80.66,92.86c-1,.08-2,.2-3,.35-8.15,1.29-14,5-15,9.42a6.07,6.07,0,0,0,.07,3c1.1,4,6.13,7.24,12.74,8.71-6-1.57-10.57-4.64-11.61-8.44a6.08,6.08,0,0,1,.37-4.24c1.56-3.43,6.12-6.32,12.33-7.73a36.31,36.31,0,0,1,5.26-.78,38.76,38.76,0,0,1,11.32.75A38.15,38.15,0,0,0,80.66,92.86Z"/><path class="cls-12" d="M93.12,93.89a38.76,38.76,0,0,0-11.32-.75,36.31,36.31,0,0,0-5.26.78c-6.21,1.41-10.77,4.3-12.33,7.73a6.08,6.08,0,0,0-.37,4.24c1,3.8,5.57,6.87,11.61,8.44a38.72,38.72,0,0,0,11.32.76c11.61-.91,19.64-6.62,18-12.76C103.68,98.53,99.16,95.47,93.12,93.89Z"/><path class="cls-11" d="M93.12,93.89c6,1.58,10.56,4.64,11.61,8.44,1.68,6.14-6.35,11.85-18,12.76a38.72,38.72,0,0,1-11.32-.76,38.15,38.15,0,0,0,12.46,1c11.6-.91,19.64-6.62,18-12.75C104.75,98.58,99.73,95.36,93.12,93.89Z"/><path class="cls-10" d="M91.07,111.41,89,109.65a19.55,19.55,0,0,1-6,.94l-.61-1.43a18.13,18.13,0,0,0,5.63-.85c2.34-.79,3.06-2,1.87-3s-3.14-1.12-6.2-.82c-4.19.43-7.22.33-9-1.18s-1.11-3.19,1.61-4.47l-2.11-1.75,2-.69,2,1.68a17.9,17.9,0,0,1,5-.83l.55,1.43a15.87,15.87,0,0,0-4.85.8c-2.53.85-2.53,2-1.69,2.67,1.08.9,2.84,1,6.45.61,4.27-.41,7.06-.09,8.92,1.46,1.65,1.37,1.38,3.27-1.65,4.7l2.17,1.81Z"/><path class="cls-3" d="M64,129.79v-5c-.22.55-.44,1.17-.65,1.76-1.12-2.73-3.67-5.13-7.19-7-5.05-2.69-12.07-4.27-19.6-4.2-1.16,0-2.33.05-3.5.14a39.48,39.48,0,0,0-15.32,4.12c-3.57,1.91-6.09,4.34-7.2,7l-.63-2.06v5.38h0a8.09,8.09,0,0,0,.27,1.8.76.76,0,0,1,0,.11c2.25,7.76,15.91,13.11,30.62,12,13.29-1,22.9-7,23.15-13.89h0Zm-7.83,4.58c-2.92,3.3-8.83,5.79-16.17,6.37A38.75,38.75,0,0,1,28.69,140c-4.78-1.06-8.74-3-11-5.58A8.1,8.1,0,0,1,16,131.26a5.91,5.91,0,0,1-.06-3,6.55,6.55,0,0,1,.43-1.27c1.75-3.83,7.24-7,14.59-8.15,1-.16,2-.27,3-.35a38.15,38.15,0,0,1,12.46,1c5.49,1.43,9.72,4.09,11.23,7.41a6.44,6.44,0,0,1-1.41,7.42Z"/><path class="cls-3" d="M56.18,134.37c-2.92,3.3-8.83,5.79-16.17,6.37A38.75,38.75,0,0,1,28.69,140c-4.78-1.06-8.74-3-11-5.58,5.84,3.12,14.3,4.78,23.14,4.09A39.48,39.48,0,0,0,56.18,134.37Z"/><path class="cls-4" d="M63.72,122.24C61.74,115,50,109.89,36.57,110c-1.16,0-2.33.06-3.5.16-14.78,1.15-25,8.42-22.88,16.24,0,0,0,.07,0,.11s.1.3.15.46c1,2.9,3.65,5.45,7.33,7.41,5.84,3.12,14.3,4.78,23.14,4.09a39.48,39.48,0,0,0,15.33-4.12c3.75-2,6.36-4.59,7.36-7.43A7.68,7.68,0,0,0,63.72,122.24ZM57.59,127c-2,4.33-8.74,7.8-17.58,8.49a38.76,38.76,0,0,1-11.32-.75c-6-1.34-10.74-4.14-12.37-7.68a6.44,6.44,0,0,1-.37-1,6,6,0,0,1-.06-3,7.66,7.66,0,0,1,1.86-3.4c2.52-2.84,7.23-5.07,13.16-6,1-.15,2-.27,3-.35a37.88,37.88,0,0,1,12.46,1c4.25,1.1,7.75,3,9.81,5.27a8,8,0,0,1,1.8,3.17A6.09,6.09,0,0,1,57.59,127Z"/><path class="cls-5" d="M33.9,113.22c-1,.08-2,.2-3,.35-8.15,1.29-14,5-15,9.41a6,6,0,0,0,.06,3c1.11,4,6.14,7.25,12.74,8.72-6-1.58-10.56-4.64-11.61-8.44a6.16,6.16,0,0,1,.37-4.25c1.56-3.42,6.12-6.32,12.33-7.72a37.94,37.94,0,0,1,5.26-.79,38.72,38.72,0,0,1,11.32.76A38.15,38.15,0,0,0,33.9,113.22Z"/><path class="cls-6" d="M46.36,114.25A38.72,38.72,0,0,0,35,113.49a37.94,37.94,0,0,0-5.26.79c-6.21,1.4-10.77,4.3-12.33,7.72a6.16,6.16,0,0,0-.37,4.25c1.05,3.8,5.57,6.86,11.61,8.44a38.8,38.8,0,0,0,11.33.75c11.6-.91,19.64-6.62,17.95-12.75C56.93,118.89,52.4,115.82,46.36,114.25Z"/><path class="cls-5" d="M46.36,114.25c6,1.57,10.57,4.64,11.61,8.44,1.69,6.13-6.35,11.84-17.95,12.75a38.8,38.8,0,0,1-11.33-.75,38.15,38.15,0,0,0,12.46,1c11.6-.91,19.64-6.62,18-12.76C58,118.93,53,115.72,46.36,114.25Z"/><path class="cls-5" d="M44.32,131.77,42.21,130a19.22,19.22,0,0,1-6,.93l-.61-1.43a17.8,17.8,0,0,0,5.63-.85c2.34-.78,3.06-2,1.87-3S40,124.53,37,124.83c-4.19.43-7.23.33-9-1.18s-1.1-3.19,1.61-4.47l-2.11-1.76,2-.68,2,1.68a17.54,17.54,0,0,1,5-.83l.56,1.42a16.34,16.34,0,0,0-4.86.81c-2.53.85-2.53,2-1.69,2.67,1.08.9,2.84.94,6.46.6,4.26-.41,7-.08,8.91,1.47,1.65,1.37,1.38,3.26-1.65,4.7l2.17,1.81Z"/></g></g></g></svg>