<svg xmlns="http://www.w3.org/2000/svg" viewBox="0 0 139.55 114.68"><defs><style>.cls-1{fill:#ffc124;}.cls-2{fill:#636363;}.cls-3{fill:#36c9ad;}</style></defs><g id="圖層_2" data-name="圖層 2"><g id="圖層_1-2" data-name="圖層 1"><path class="cls-1" d="M86.63,7.45a2.73,2.73,0,1,0-2.72,2.72A2.72,2.72,0,0,0,86.63,7.45Z"/><rect class="cls-2" x="55.35" y="72.13" width="81.21" height="2.25"/><rect class="cls-3" x="55.35" y="37.17" width="8.92" height="28.5"/><rect class="cls-1" x="127.64" y="22.38" width="8.92" height="43.3"/><rect class="cls-1" x="79.45" y="21.83" width="8.92" height="43.84"/><path class="cls-2" d="M83.91,14.89a7.45,7.45,0,1,1,7.44-7.44A7.45,7.45,0,0,1,83.91,14.89Zm0-12.64a5.2,5.2,0,1,0,5.2,5.2A5.2,5.2,0,0,0,83.91,2.25Z"/><path class="cls-1" d="M134.83,8a2.73,2.73,0,1,0-2.73,2.72A2.73,2.73,0,0,0,134.83,8Z"/><path class="cls-2" d="M132.1,15.43A7.45,7.45,0,1,1,139.55,8,7.45,7.45,0,0,1,132.1,15.43Zm0-12.64A5.2,5.2,0,1,0,137.3,8,5.2,5.2,0,0,0,132.1,2.79Z"/><rect class="cls-3" x="103.54" y="35.54" width="8.92" height="30.13"/><path class="cls-2" d="M108,26.08a4.93,4.93,0,1,1,4.92-4.93A4.93,4.93,0,0,1,108,26.08Zm0-7.6a2.68,2.68,0,1,0,2.67,2.67A2.68,2.68,0,0,0,108,18.48Z"/><path class="cls-2" d="M59.81,27.71a4.93,4.93,0,1,1,4.93-4.93A4.93,4.93,0,0,1,59.81,27.71Zm0-7.6a2.68,2.68,0,1,0,2.68,2.67A2.68,2.68,0,0,0,59.81,20.11Z"/><rect class="cls-2" x="61.32" y="14.35" width="18.5" height="2.25" transform="translate(2.22 38.86) rotate(-31.26)"/><rect class="cls-2" x="95.85" y="5.9" width="2.25" height="17.08" transform="translate(33.19 88.9) rotate(-57.89)"/><rect class="cls-2" x="110.2" y="13.91" width="17.35" height="2.25" transform="translate(8.28 61.14) rotate(-29.84)"/><rect class="cls-2" x="5.41" y="100.58" width="35.51" height="1.91"/><rect class="cls-2" x="5.41" y="47.32" width="35.51" height="1.91"/><path class="cls-2" d="M40.62,114.68H5.71A5.72,5.72,0,0,1,0,109V45.34a5.71,5.71,0,0,1,5.71-5.71H40.62a5.71,5.71,0,0,1,5.71,5.71V109A5.72,5.72,0,0,1,40.62,114.68ZM5.71,41.54a3.81,3.81,0,0,0-3.8,3.8V109a3.81,3.81,0,0,0,3.8,3.81H40.62a3.81,3.81,0,0,0,3.8-3.81V45.34a3.81,3.81,0,0,0-3.8-3.8Z"/><path class="cls-2" d="M23.17,111.46a3.76,3.76,0,1,1,3.76-3.76A3.77,3.77,0,0,1,23.17,111.46Zm0-5.61A1.85,1.85,0,1,0,25,107.7,1.85,1.85,0,0,0,23.17,105.85Z"/><rect class="cls-2" x="18.76" y="43.52" width="8.8" height="1.91"/></g></g></svg>