<svg xmlns="http://www.w3.org/2000/svg" viewBox="0 0 99.18 112"><defs><style>.cls-1{fill:#636363;}.cls-2{fill:#36c9ad;}.cls-3{fill:#ffc124;}</style></defs><g id="圖層_2" data-name="圖層 2"><g id="圖層_1-2" data-name="圖層 1"><rect class="cls-1" x="34.31" y="6.51" width="16.23" height="2.84"/><path class="cls-1" d="M51.32,112H7.91A7.92,7.92,0,0,1,0,104.09V7.91A7.92,7.92,0,0,1,7.91,0h69a7.92,7.92,0,0,1,7.91,7.91V38.74a1.42,1.42,0,1,1-2.84,0V7.91a5.07,5.07,0,0,0-5.07-5.07h-69A5.07,5.07,0,0,0,2.84,7.91v96.18a5.07,5.07,0,0,0,5.07,5.07H51.32a1.42,1.42,0,1,1,0,2.84Z"/><rect class="cls-1" x="34.31" y="102.65" width="16.23" height="2.84"/><path class="cls-1" d="M83.43,15.86h-82a1.42,1.42,0,0,1,0-2.84h82a1.42,1.42,0,1,1,0,2.84Z"/><path class="cls-1" d="M50.54,99H1.42a1.43,1.43,0,0,1,0-2.85H50.54a1.43,1.43,0,0,1,0,2.85Z"/><rect class="cls-2" x="10.39" y="23.46" width="11.2" height="11.2" rx="3.23"/><rect class="cls-3" x="27.74" y="23.46" width="11.2" height="11.2" rx="3.23"/><rect class="cls-2" x="45.09" y="23.46" width="11.2" height="11.2" rx="3.23"/><rect class="cls-3" x="10.39" y="41.57" width="11.2" height="11.2" rx="3.23"/><rect class="cls-2" x="27.74" y="41.57" width="11.2" height="11.2" rx="3.23"/><rect class="cls-3" x="10.39" y="59.67" width="11.2" height="11.2" rx="3.23"/><rect class="cls-2" x="27.74" y="59.67" width="11.2" height="11.2" rx="3.23"/><path class="cls-1" d="M72.39,56.75A1.42,1.42,0,0,1,71,55.32V44.52a1.42,1.42,0,0,1,1.42-1.42h4.23a5.66,5.66,0,0,1,5.65,5.65,1.43,1.43,0,0,1-2.85,0,2.8,2.8,0,0,0-2.8-2.8H73.81v9.37A1.43,1.43,0,0,1,72.39,56.75Z"/><path class="cls-1" d="M92.56,93.3H74.4a1.42,1.42,0,0,1,0-2.84h17c.2-.83.52-2,1-3.42a83.12,83.12,0,0,0,3.92-23.19,1.42,1.42,0,0,1,1.42-1.39h0a1.42,1.42,0,0,1,1.38,1.46,85.43,85.43,0,0,1-4.06,24A42.52,42.52,0,0,0,94,92.15,1.42,1.42,0,0,1,92.56,93.3Z"/><path class="cls-1" d="M65.43,93.3A1.43,1.43,0,0,1,64,92.13c0-.08-1.38-7.56-6.23-13A33.53,33.53,0,0,1,54,74,29.48,29.48,0,0,1,49.9,58.81,6.43,6.43,0,0,1,62.34,56.5l.17.43V33.29a5.65,5.65,0,0,1,11.3,0V44.52a1.42,1.42,0,1,1-2.84,0V33.29a2.81,2.81,0,0,0-5.62,0V64.6a1.42,1.42,0,0,1-2.75.51l-2.91-7.59a3.59,3.59,0,0,0-6.94,1.29,26.68,26.68,0,0,0,3.73,13.7,30.79,30.79,0,0,0,3.44,4.74,32.31,32.31,0,0,1,6.92,14.38,1.43,1.43,0,0,1-1.16,1.65Z"/><path class="cls-1" d="M89.3,63.57a1.42,1.42,0,0,1-1.42-1.42V51.91a2.81,2.81,0,0,0-2.8-2.81H82.27v9.38a1.43,1.43,0,1,1-2.85,0V47.68a1.43,1.43,0,0,1,1.43-1.42h4.23a5.66,5.66,0,0,1,5.65,5.65V62.15A1.42,1.42,0,0,1,89.3,63.57Z"/><path class="cls-1" d="M97.76,65.31a1.43,1.43,0,0,1-1.42-1.43V57.31a2.8,2.8,0,0,0-2.81-2.8H89.3a1.43,1.43,0,0,1,0-2.85h4.23a5.66,5.66,0,0,1,5.65,5.65v6.57A1.42,1.42,0,0,1,97.76,65.31Z"/><path class="cls-1" d="M94.9,112H62.11a1.43,1.43,0,0,1-1.42-1.42v-13a1.43,1.43,0,0,1,1.42-1.42H94.9a1.43,1.43,0,0,1,1.43,1.42v13A1.43,1.43,0,0,1,94.9,112Zm-31.36-2.84H93.48V99H63.54Z"/><path class="cls-1" d="M87.61,106.72a2.65,2.65,0,1,1,2.65-2.65A2.65,2.65,0,0,1,87.61,106.72Zm0-2.85a.2.2,0,0,0-.19.2c0,.22.39.22.39,0A.2.2,0,0,0,87.61,103.87Z"/></g></g></svg>