<svg xmlns="http://www.w3.org/2000/svg" viewBox="0 0 146.45 126.34"><defs><style>.cls-1{fill:#636363;}.cls-2{fill:#36c9ad;}.cls-3{fill:#ffc524;}.cls-4{fill:#344154;}</style></defs><g id="圖層_2" data-name="圖層 2"><g id="圖層_1-2" data-name="圖層 1"><path class="cls-1" d="M141.08,10.75H33.2A5.38,5.38,0,0,1,33.2,0H141.08a5.38,5.38,0,0,1,0,10.75ZM33.2,3a2.38,2.38,0,0,0,0,4.75H141.08a2.38,2.38,0,0,0,0-4.75Z"/><circle class="cls-2" cx="47.39" cy="86.84" r="39.5"/><circle class="cls-3" cx="101.14" cy="28.09" r="10.75"/><path class="cls-1" d="M81.18,81.25H1.09a1.09,1.09,0,0,1,0-2.18H81.18a1.09,1.09,0,0,1,0,2.18Z"/><path class="cls-1" d="M41.13,81.29A1.09,1.09,0,0,1,40,80.2V40.11a1.09,1.09,0,0,1,2.18,0V80.2A1.09,1.09,0,0,1,41.13,81.29Z"/><path class="cls-1" d="M81.19,81.35a1.09,1.09,0,0,1-1.09-1.09A39,39,0,1,0,2.18,80.2,1.09,1.09,0,1,1,0,80.2a41.14,41.14,0,1,1,82.28.06A1.09,1.09,0,0,1,81.19,81.35Z"/><path class="cls-1" d="M19.67,81.25a1.09,1.09,0,0,1-1.09-1.09c0-16.6,6-26.87,11-32.55a32.89,32.89,0,0,1,11.15-8.52,1.09,1.09,0,0,1,.81,2c-.25.1-20.79,8.76-20.79,39A1.09,1.09,0,0,1,19.67,81.25Z"/><path class="cls-1" d="M62.61,81.25a1.09,1.09,0,0,1-1.09-1.09c0-15.86-5.65-25.62-10.38-31a31.23,31.23,0,0,0-10.41-8,1.09,1.09,0,0,1,.81-2c.23.09,22.16,9.22,22.16,41.07A1.09,1.09,0,0,1,62.61,81.25Z"/><path class="cls-1" d="M41.13,64.07c-22.53,0-28.57-11.71-28.82-12.21a1.1,1.1,0,0,1,.5-1.46,1.09,1.09,0,0,1,1.46.49c.05.11,5.79,11,26.86,11a1.09,1.09,0,0,1,0,2.18Z"/><path class="cls-1" d="M41.15,64.07a1.09,1.09,0,0,1,0-2.18C62.22,61.89,68,51,68,50.89a1.09,1.09,0,0,1,2,1C69.72,52.36,63.68,64.07,41.15,64.07Z"/><path class="cls-1" d="M41.15,121.33a1.09,1.09,0,0,1-1.09-1.09V80.16a1.09,1.09,0,1,1,2.18,0v40.08A1.09,1.09,0,0,1,41.15,121.33Z"/><path class="cls-1" d="M41.14,121.34A41.19,41.19,0,0,1,0,80.2a1.09,1.09,0,1,1,2.18,0,39,39,0,0,0,77.92,0,1.09,1.09,0,1,1,2.18,0A41.19,41.19,0,0,1,41.14,121.34Z"/><path class="cls-1" d="M41.14,121.34a1.09,1.09,0,0,1-.41-2.1h0c.21-.09,20.79-8.73,20.79-39a1.09,1.09,0,1,1,2.18,0c0,16.6-6,26.86-11,32.55a32.61,32.61,0,0,1-11.15,8.51A1.14,1.14,0,0,1,41.14,121.34Z"/><path class="cls-1" d="M41.14,121.34a1.1,1.1,0,0,1-.4-.08c-.23-.09-22.16-9.21-22.16-41.06a1.09,1.09,0,1,1,2.18,0c0,15.86,5.65,25.62,10.38,31a31.23,31.23,0,0,0,10.41,8,1.09,1.09,0,0,1-.41,2.1Z"/><path class="cls-1" d="M69,110.07a1.1,1.1,0,0,1-1-.6h0c-.05-.11-5.79-11-26.86-11a1.09,1.09,0,1,1,0-2.18C63.68,96.29,69.72,108,70,108.5a1.1,1.1,0,0,1-.5,1.46A1.16,1.16,0,0,1,69,110.07Z"/><path class="cls-1" d="M13.29,110.07a1.11,1.11,0,0,1-.49-.12,1.09,1.09,0,0,1-.49-1.45c.25-.5,6.29-12.21,28.82-12.21a1.09,1.09,0,1,1,0,2.18c-21.07,0-26.81,10.89-26.86,11A1.11,1.11,0,0,1,13.29,110.07Z"/><path class="cls-1" d="M141.3,72.25H93.14a1.5,1.5,0,1,1,0-3H138.3V10.75H36v21.6a1.5,1.5,0,0,1-3,0V7.75H141.3Z"/><path class="cls-1" d="M108,56.92,97.2,47.06l-7.11,6.88A1.5,1.5,0,0,1,88,51.78l9.14-8.84,10.7,9.8L125.6,34.58a1.5,1.5,0,0,1,2.15,2.09Z"/><path class="cls-4" d="M98.58,37.83a11.69,11.69,0,1,1,11.69-11.69A11.7,11.7,0,0,1,98.58,37.83Zm0-21.94a10.25,10.25,0,1,0,10.25,10.25A10.26,10.26,0,0,0,98.58,15.89Z"/><path class="cls-4" d="M100,28.12a1.13,1.13,0,0,0-.34-.83,3,3,0,0,0-1.14-.61,3.9,3.9,0,0,1-1.64-.88,2,2,0,0,1-.56-1.47,2.09,2.09,0,0,1,.51-1.45,2.21,2.21,0,0,1,1.41-.67V21h.85v1.19a2.08,2.08,0,0,1,1.4.74,2.55,2.55,0,0,1,.5,1.66h-1a1.79,1.79,0,0,0-.34-1.11,1.15,1.15,0,0,0-.94-.42,1.14,1.14,0,0,0-1.28,1.24,1.11,1.11,0,0,0,.33.84,3.31,3.31,0,0,0,1.18.62,4.05,4.05,0,0,1,1.64.89,2.23,2.23,0,0,1,0,2.91,2.4,2.4,0,0,1-1.53.65v1h-.85v-1a2.52,2.52,0,0,1-1.52-.68,2.23,2.23,0,0,1-.57-1.7v0h1A1.48,1.48,0,0,0,97.53,29a1.56,1.56,0,0,0,1,.35A1.63,1.63,0,0,0,99.64,29,1.14,1.14,0,0,0,100,28.12Z"/></g></g></svg>