<svg id="Capa_1" enable-background="new 0 0 512 512" height="512" viewBox="0 0 512 512" width="512" xmlns="http://www.w3.org/2000/svg"><path d="m396.43 126.105c2.93-2.929 2.93-7.677.001-10.606-18.63-18.63-43.399-28.89-69.746-28.89s-51.117 10.26-69.746 28.89c-2.929 2.929-2.929 7.677 0 10.606 2.928 2.929 7.677 2.929 10.606 0 15.796-15.797 36.8-24.496 59.14-24.496s43.343 8.699 59.139 24.496c2.928 2.928 7.677 2.93 10.606 0z"/><path d="m457.693 54.237c-72.24-72.238-189.78-72.237-262.016 0-67.035 67.034-71.61 171.78-15.887 243.949l-21.786 21.786c-7.399-3.526-16.487-2.547-22.963 3.121l-118.471 103.703c-21.123 18.49-22.206 51.067-2.354 70.918 19.88 19.881 52.427 18.77 70.918-2.354l103.703-118.471c5.67-6.476 6.648-15.564 3.122-22.963l21.786-21.786c72.099 55.668 176.856 51.206 243.95-15.887 72.402-72.404 72.412-189.602-.002-262.016zm-383.846 431.244c-12.76 14.578-35.221 15.432-49.026 1.628-13.669-13.669-13.091-36.143 1.628-49.026l86.181-75.438 36.656 36.655zm103.704-118.472-18.364 20.979-35.246-35.245 20.98-18.365c2.4-2.1 6.037-1.97 8.282.275l24.074 24.074c2.249 2.25 2.37 5.888.274 8.282zm4.665-24.554-12.742-12.742 19.985-19.985c3.963 4.358 8.115 8.535 12.742 12.742zm264.871-36.808c-62.957 62.957-162.366 66.129-229.003 10.752-.079-.068-.158-.137-.239-.201-7.842-6.541-15.114-13.722-22.112-22.112-.065-.082-.134-.161-.202-.24-55.333-66.585-52.248-166.002 10.753-229.003 66.388-66.387 174.412-66.392 240.804 0 66.542 66.541 66.551 174.254-.001 240.804z"/><path d="m308.714 312.763c-27.86-3.904-53.132-16.512-73.083-36.464-50.207-50.208-50.207-131.902 0-182.109 19.817-19.817 44.909-32.4 72.564-36.39 4.099-.592 6.943-4.394 6.351-8.494s-4.396-6.943-8.494-6.352c-30.884 4.456-58.903 18.505-81.027 40.63-56.056 56.055-56.056 147.265 0 203.321 22.275 22.274 50.495 36.352 81.607 40.711.354.05.704.074 1.051.074 3.68 0 6.892-2.711 7.418-6.46.573-4.101-2.286-7.892-6.387-8.467z"/><path d="m428.346 83.584c-23.086-23.086-52.392-37.304-84.746-41.116-4.106-.481-7.841 2.456-8.326 6.57-.485 4.113 2.457 7.841 6.57 8.325 28.973 3.414 55.218 16.149 75.896 36.827 50.207 50.207 50.207 131.901 0 182.109-20.68 20.68-46.926 33.414-75.904 36.827-4.114.485-7.055 4.212-6.571 8.325.449 3.816 3.688 6.623 7.438 6.623.293 0 .589-.017.887-.052 32.36-3.811 61.668-18.029 84.757-41.118 56.054-56.054 56.054-147.264-.001-203.32z"/></svg>