<svg xmlns="http://www.w3.org/2000/svg" viewBox="0 0 296.42 60.62"><defs><style>.cls-1{fill:#44b8ba;}.cls-2{fill:#fff;}</style></defs><g id="圖層_2" data-name="圖層 2"><g id="圖層_1-2" data-name="圖層 1"><rect class="cls-1" width="296.42" height="49.47" rx="24.74"/><path class="cls-2" d="M34.55,26.66v.77H19.82v-.77h3.94V22.38H20.54v-.77h3.22V18.13h.8v3.48h5.18V18.13h.8v3.48h3.37v.77H30.54v4.28ZM25.4,28.87a17.72,17.72,0,0,1-4.69,3.92l-.59-.57a15.3,15.3,0,0,0,4.48-3.64Zm-.84-2.21h5.18V22.38H24.56Zm4.81,1.92a55.62,55.62,0,0,1,4.69,3.67l-.71.51A50,50,0,0,0,28.73,29Z"/><path class="cls-2" d="M50.12,31.63c0,.62-.18.88-.6,1a10.72,10.72,0,0,1-2.63.13,3,3,0,0,0-.31-.75c1.14,0,2.09,0,2.35,0s.43-.11.43-.39v-12H37.66v13.2h-.77V18.87H50.12Zm-2.4-9.26H39.36v-.72h8.36Zm-6.75,7v1.26h-.73V24.36h6.52v5Zm0-4.3v3.6h5v-3.6Z"/><path class="cls-2" d="M63.45,26.6a8.62,8.62,0,0,0,3.89,2.91,3.09,3.09,0,0,0-.54.6,9.59,9.59,0,0,1-4.19-3.51H57.15a10.9,10.9,0,0,1-4.21,3.74,2.45,2.45,0,0,0-.56-.6,9.93,9.93,0,0,0,3.93-3.14H52.56v-.7h3.32V20.45H53.27v-.7h2.61V18h.78v1.78h6.41V18h.79v1.76h2.59v.7H63.86V25.9h3.26v.7Zm-3.26,5H66v.7H53.72v-.7h5.71V29.51H55.82V28.8h3.61V27.22h.76V28.8h3.7v.71h-3.7ZM56.66,20.45v1.33h6.41V20.45Zm0,3.37h6.41V22.43H56.66Zm0,2.08h6.41V24.47H56.66Z"/><path class="cls-2" d="M77,18.17a4.7,4.7,0,0,1-.38.53,17.79,17.79,0,0,0,7.14,4.68,4.35,4.35,0,0,0-.57.7,20,20,0,0,1-7-4.8,16.92,16.92,0,0,1-7,4.83,2.94,2.94,0,0,0-.54-.73,15.22,15.22,0,0,0,7.66-5.54Zm-.46,13.31h6.7v.74H69.17v-.74h6.57V27H69.87v-.73h5.87V23.71H72.08V23h8.24v.76H76.54v2.53h6V27h-6Zm-4.43-3.84a13.51,13.51,0,0,1,1.6,3.06L73,31a14.13,14.13,0,0,0-1.57-3.1Zm6.23,3.11a22.36,22.36,0,0,0,1.83-3.14l.77.31a33.15,33.15,0,0,1-2,3.12Z"/><path class="cls-2" d="M98.54,25.88h-5.6V31.5h-.82V25.88H86.51v-.8h5.61V19.46h.82v5.62h5.6Z"/><path class="cls-2" d="M104.86,24.16a16.62,16.62,0,0,0-3.37-2.29l1.33-1.68a15.12,15.12,0,0,1,3.45,2.1ZM102,31.71A60,60,0,0,0,104.92,25l1.9,1.37c-.77,2.21-1.71,4.62-2.63,6.66Zm4.2-13.4A21,21,0,0,0,102.66,16L104,14.3a22.17,22.17,0,0,1,3.68,2.14Zm13,7.66c-.06.83-.12,1.56-.18,2.2h1.27v2.1h-1.54a4.89,4.89,0,0,1-.63,1.94,2.26,2.26,0,0,1-1.68.93,12.09,12.09,0,0,1-2.6,0,4.84,4.84,0,0,0-.65-2c.92.08,1.73.08,2.14.08a.83.83,0,0,0,.77-.33,1.87,1.87,0,0,0,.27-.65h-8.58c.22-1.18.47-2.7.7-4.3h-1.85V23.72h2.14c.15-1.12.27-2.25.38-3.31-.25.38-.52.73-.77,1.06a20.2,20.2,0,0,0-2.12-1.35A16.57,16.57,0,0,0,109.66,14l2.4.6c-.17.48-.36,1-.57,1.5h8.84v2.2h-9.85c-.25.48-.48.94-.75,1.37h9.83s0,.73,0,1c0,1.11-.1,2.1-.14,3h1.47V26Zm-8.42,0c-.1.77-.21,1.49-.31,2.2h3.14a17.22,17.22,0,0,0-1.81-1.7l.79-.5Zm.54-4.23c-.08.67-.17,1.32-.25,2H114a15.57,15.57,0,0,0-1.52-1.52l.71-.46Zm5.41,6.43c.08-.62.14-1.33.21-2.2h-3.35a14.4,14.4,0,0,1,1.85,1.74l-.67.46Zm-2.66-6.43a14.68,14.68,0,0,1,1.58,1.59l-.59.39h2c0-.62.06-1.27.08-2Z"/><path class="cls-2" d="M131.13,16.9l1.77.5c-1,8.42-4,13.54-8.61,16a11.38,11.38,0,0,0-2.08-2.08A12,12,0,0,0,127.83,26a39.73,39.73,0,0,0-2.69-3,11.69,11.69,0,0,1-1,1.58A22.19,22.19,0,0,0,122,23c1.81-2.08,3-5.51,3.68-9.08l2.5.43c-.19.9-.39,1.75-.62,2.6h3.07Zm-4.32,2.43c-.19.54-.38,1-.59,1.54.84.81,1.88,1.77,2.69,2.64a23.43,23.43,0,0,0,1-4.18Zm12.89,7.28a37.63,37.63,0,0,0-3.35-3.89V33.39h-2.62V14h2.62v6.9l.92-.66c1.43,1.41,3.53,3.45,4.53,4.72Z"/><path class="cls-2" d="M149.57,14.69a36.84,36.84,0,0,1-1.79,3.85V33.35h-2.42v-11a17.77,17.77,0,0,1-1.51,1.76,17.6,17.6,0,0,0-1.27-2.53,21.71,21.71,0,0,0,4.7-7.57Zm5.59,16a17.76,17.76,0,0,1-4.76,2.78,12.87,12.87,0,0,0-2-1.7,14.53,14.53,0,0,0,4.35-2Zm-.83-14.15h-4.56V15h4.56V14h2.49v1h4.75V16.5h-4.75v.69h4.31v1.46h-4.31v.7h5.45V21H148.88V19.35h5.45v-.7h-4.12V17.19h4.12Zm4.35,13.21a25.07,25.07,0,0,1,3.74,2.56l-2.23,1.29a22.6,22.6,0,0,0-3.8-2.89l2.14-1h-8.19v-8H161v8Zm-6-5.7h5.82V23.2h-5.82Zm0,2.08h5.82v-.83h-5.82Zm0,2.08h5.82v-.83h-5.82Z"/><path class="cls-2" d="M178.44,23a13.31,13.31,0,0,0,5.09,2.37,9.78,9.78,0,0,0-1.58,2,14.1,14.1,0,0,1-2.47-1c-.23,3.66-.52,5.33-1.1,6a2.34,2.34,0,0,1-1.65.79,18.22,18.22,0,0,1-2.7.06,5.36,5.36,0,0,0-.71-2.33,17.52,17.52,0,0,0,2.19.09.89.89,0,0,0,.74-.23c.3-.31.5-1.29.69-3.58h-4.1c-.52,2.87-1.91,5-6.36,6.18a6.88,6.88,0,0,0-1.39-2.12c3.59-.82,4.7-2.15,5.15-4.06h-2.68v-.89a18.24,18.24,0,0,1-2.33,1.22,6.88,6.88,0,0,0-1.52-2.08,15.8,15.8,0,0,0,4.2-2.41H164.3V20.73h5.76a14.86,14.86,0,0,0,.87-1.31h-5.37V17.23h3a18.69,18.69,0,0,0-1.33-2.08l2-1a11.45,11.45,0,0,1,1.67,2.55l-.94.48H172a14.85,14.85,0,0,0,.77-3.37l2.62.25a27.26,27.26,0,0,1-.75,3.12h1.79a23.25,23.25,0,0,0,1.6-2.89l2.31.71c-.5.77-1,1.52-1.5,2.18h2.64v2.19h-7.69c-.23.45-.46.87-.71,1.31h9.71V23Zm-7,0a14.57,14.57,0,0,1-2,1.94h7.8A13.18,13.18,0,0,1,175.4,23Z"/><path class="cls-2" d="M192.62,26.91v5.83h-.76V26.91h-3.4v-.72h3.4v-2h-3.47v-.7H193a27.42,27.42,0,0,0,1-2.89l.75.19c-.3.87-.66,1.91-1,2.7H196v.7h-3.37v2h3.26v.72Zm-1.84,1.22a10.72,10.72,0,0,1-1.72,3.26,3.06,3.06,0,0,0-.59-.41,9.08,9.08,0,0,0,1.62-3Zm5-7.69h-7.11v-.71h3.48c-.23-.5-.57-1.12-.85-1.6l.75-.21a13.06,13.06,0,0,1,1,1.81h2.75Zm-5.22,2.89a10.4,10.4,0,0,0-.7-2.53l.65-.15a10.2,10.2,0,0,1,.76,2.48Zm3.66,4.59a15.41,15.41,0,0,1,1.41,2.71L195,31a16.91,16.91,0,0,0-1.37-2.78Zm8.91-3.64h-2v8.41h-.77V24.28h-2.68v.8c0,2.3-.21,5.44-1.78,7.6a1.86,1.86,0,0,0-.59-.49c1.49-2,1.64-4.91,1.64-7.11V19.55a29.29,29.29,0,0,0,5.18-1.21l.68.59a28.31,28.31,0,0,1-5.13,1.15v3.46h5.41Z"/><path class="cls-2" d="M211.13,27.86l-6.28,1.78-.21-.8,2.79-.72V20.76h-2.58V20h5.9v.75H208.2v7.15c.92-.27,1.9-.53,2.85-.79Zm8.09-6a4.5,4.5,0,0,1,0,.46c-.31,6.8-.56,9.14-1.19,9.85a1.47,1.47,0,0,1-1.16.49,17.88,17.88,0,0,1-2.44-.06,2,2,0,0,0-.24-.77c1.07.1,2.07.12,2.42.12a.79.79,0,0,0,.71-.25c.54-.56.84-2.83,1.1-9.07h-3.86c-.28,4.31-1.22,8.11-5,10.18a2.28,2.28,0,0,0-.57-.59c3.68-1.91,4.58-5.5,4.84-9.59h-3v-.77h3c.05-1.17.07-2.37.07-3.59h.78c0,1.22,0,2.42-.07,3.59Z"/><path class="cls-2" d="M227.6,31.75c0,.49-.11.71-.47.85a8.45,8.45,0,0,1-2.13.13,2.51,2.51,0,0,0-.27-.71,17.38,17.38,0,0,0,1.84,0c.23,0,.28-.06.28-.27v-3c-1.26.7-2.53,1.38-3.56,1.92l-.38-.71c1-.43,2.49-1.15,3.94-1.88v-3.6H223V28a7.75,7.75,0,0,1-1.28,4.84,1.77,1.77,0,0,0-.54-.55A6.92,6.92,0,0,0,222.21,28V23.72h5.39Zm-1.14-12.6a17.21,17.21,0,0,1,2.27,3.54l-.67.35a6.69,6.69,0,0,0-.59-1.16c-4.62.35-5.13.42-5.46.55a7.4,7.4,0,0,0-.26-.8,1.73,1.73,0,0,0,.82-.64,16.48,16.48,0,0,0,2.21-3l.78.31a20.92,20.92,0,0,1-2.45,3.22l4-.28c-.41-.6-.84-1.24-1.26-1.79Zm-2.78,6.5a32.92,32.92,0,0,1,3,1.75l-.41.52a27.29,27.29,0,0,0-3-1.81Zm7.08-.74c-1.15,0-1.49-.37-1.49-1.5V18h.78v2.47h4.66v.72h-4.66v2.3c0,.59.15.79.71.79h3.38a8.57,8.57,0,0,0,1.27-.08,4.53,4.53,0,0,0,.1.7,9,9,0,0,1-1.35.06Zm3.49,7c.76,0,.89-.34.95-2.24a2.24,2.24,0,0,0,.74.29c-.13,2.13-.38,2.65-1.64,2.65h-3.25c-1.39,0-1.78-.26-1.78-1.34V25.54h.78v2.14h4.86v.75h-4.86v2.84c0,.51.17.64,1,.64Z"/><path class="cls-2" d="M252,31.22V32h-14.5v-.79h6.28v-13h.81v5.23h6.29v.76H244.6v7Z"/><path class="cls-2" d="M255.16,28.41a25.27,25.27,0,0,1-.9,4,6.27,6.27,0,0,0-.67-.26,17.85,17.85,0,0,0,.87-3.86Zm3.24-.64c0-.31-.12-.67-.21-1.07-3.45.53-3.89.62-4.17.76a7.79,7.79,0,0,0-.28-.8c.31-.05.67-.47,1.16-1.08a25,25,0,0,0,1.55-2.15,11.18,11.18,0,0,0-2.55.42,4,4,0,0,0-.26-.78c.26-.05.56-.41.87-.92a22.22,22.22,0,0,0,2.24-4.2l.77.33a28.27,28.27,0,0,1-2.67,4.64l2.06-.21c.44-.7.87-1.46,1.24-2.19l.72.39a35.33,35.33,0,0,1-3.77,5.56l2.92-.41c-.18-.62-.37-1.26-.57-1.83l.65-.13a20.15,20.15,0,0,1,1,3.48Zm-1.78.49a34.84,34.84,0,0,1,.44,3.52l-.69.11a28,28,0,0,0-.41-3.53Zm1.4-.35a19.36,19.36,0,0,1,.9,2.86l-.64.19a20.16,20.16,0,0,0-.86-2.91ZM263.2,27a7.75,7.75,0,0,1-3.82,5,4.27,4.27,0,0,0-.49-.56,6.94,6.94,0,0,0,3.41-3.87h-2.55v-.7h2.85l.13,0Zm4.87-.49a24.38,24.38,0,0,1-2.37,2.11,7.45,7.45,0,0,0,2.85,2.74A3.1,3.1,0,0,0,268,32a9.14,9.14,0,0,1-3.54-4.32v4.1c0,.49-.12.72-.48.85a6.81,6.81,0,0,1-2.07.15,3.24,3.24,0,0,0-.28-.73h1.8c.23,0,.28-.07.28-.27V25.32h-3.37V19.7H263a16.91,16.91,0,0,0,.57-1.75l.85.23c-.23.51-.44,1.06-.65,1.52h3.81v5.62h-3.09v.62a10.92,10.92,0,0,0,.93,2.19,18.84,18.84,0,0,0,2.06-2Zm-7-4.38h5.69v-1.8h-5.69Zm0,2.47h5.69V22.82h-5.69Z"/><path class="cls-2" d="M272.28,30.54a1.08,1.08,0,1,1,2.15,0,1.08,1.08,0,0,1-2.15,0ZM272.7,21l0-1.63H274V21l-.3,6.8H273Z"/><polyline class="cls-1" points="125.92 45.76 140.78 60.62 170.5 45.76"/></g></g></svg>