<svg xmlns="http://www.w3.org/2000/svg" viewBox="0 0 243.1 133.12"><defs><style>.cls-1{fill:#fff;stroke:#00a19b;stroke-width:0.75px;opacity:0.95;}.cls-1,.cls-5{stroke-miterlimit:10;}.cls-2{fill:#231815;}.cls-3{fill:#f3a033;}.cls-4{fill:#416fa3;}.cls-5,.cls-6{fill:none;}.cls-5{stroke:#231815;stroke-width:0.2px;}</style></defs><g id="圖層_2" data-name="圖層 2"><g id="圖層_1-2" data-name="圖層 1"><path class="cls-1" d="M202.36,132.73,10.81,124.07c-7.44-.34-11.92-7.3-10-15.54L28.6,14.71C30.53,6.46,38.13.05,45.58.39L232.29,4.86c7.44.34,11.92,7.29,10,15.54l-22.94,98C217.41,126.66,209.81,133.07,202.36,132.73Z"/><path class="cls-2" d="M148.67,57.13l.12-.51c0-.06.06-.09.13-.09.37,0,.54.06.53.12s-.06.12-.11.12-.08.06-.11.16l0,.23,2.23.1.12-.51a.1.1,0,0,1,.13-.09c.36,0,.54.05.52.12a.13.13,0,0,1-.1.12c-.05,0-.09.06-.11.15l-.05.23,1.11,0s.05,0,0,.09l-.07.26c0,.08,0,.12-.08.12l-1.11,0-.61,2.59,1.54.07s0,0,0,.1l-.06.25q0,.12-.09.12l-1.43-.06c.05.15.1.27.15.39a2.14,2.14,0,0,0,.38.6,2.06,2.06,0,0,0,.74.62s.05,0,.05,0a.21.21,0,0,1-.06.1l-.36.27s-.06.06-.09.06a2.06,2.06,0,0,1-.54-.44,2.77,2.77,0,0,1-.5-.73,6.78,6.78,0,0,1-.34-.94l-2.28-.1c-.3.35-.56.63-.76.82a7,7,0,0,1-.74.62,6.49,6.49,0,0,1-.86.53c-.06,0-.09,0-.11-.06l-.22-.29v-.09a4.33,4.33,0,0,0,.65-.33,5.12,5.12,0,0,0,.83-.6,7.74,7.74,0,0,0,.61-.63l-1.54-.07s0,0,0-.13l.05-.25c0-.06,0-.09.08-.09l1.63.08.61-2.6-1.14-.05s0,0,0-.12l.06-.26c0-.06,0-.09.08-.09Zm.28,4.7.15-.63c0-.06.06-.09.14-.09.35,0,.53.06.51.12s-.05.12-.1.11a.23.23,0,0,0-.1.17l-.08.35,1.36.06s0,0,0,.1l-.06.25q0,.12-.09.12l-1.36-.06-.2.85,2.27.11s.06,0,0,.1l-.06.25c0,.08,0,.12-.08.12l-5-.23s0,0,0-.12l.06-.25c0-.07,0-.1.07-.1l2.2.1.2-.86-1.34-.06s-.05,0,0-.12l.06-.25c0-.07,0-.1.08-.1Zm1.74-1.51.13-.54-2.23-.1-.13.54Zm.24-1,.12-.54-2.22-.1-.13.54Zm.23-1,.14-.57-2.23-.1-.13.57Z"/><path class="cls-2" d="M158.66,57.18a.41.41,0,0,1,.05.11c0,.07-.08.1-.17.09a.54.54,0,0,0-.19,0,5.83,5.83,0,0,0,.63,1.13,4.64,4.64,0,0,0,.78.89,2.41,2.41,0,0,0,1,.58.12.12,0,0,1-.09.09c-.19.14-.33.26-.42.34a.14.14,0,0,1-.13,0,3.31,3.31,0,0,1-.94-.74l0,.13c0,.09-.06.13-.12.12l-1.37-.06-.29,1.23,1.94.09c.06,0,.07,0,.05.13l-.05.25q0,.12-.12.12l-1.93-.09-.43,1.84,2.65.12c.06,0,.08,0,.06.13l-.06.25q0,.12-.12.12l-5.79-.26c-.06,0-.08,0-.06-.13l.06-.25c0-.09.06-.13.12-.13l2.62.12.43-1.83-2-.09c-.05,0-.07,0-.06-.13l.06-.25q0-.12.12-.12l2,.09.28-1.23-1.36-.06c-.06,0-.08-.05-.06-.14l.06-.25c-.2.13-.39.25-.58.35a7.3,7.3,0,0,1-.8.38.11.11,0,0,1-.1-.08,1.37,1.37,0,0,0-.16-.32c-.05,0-.07-.06-.06-.09s0,0,.07,0a7.89,7.89,0,0,0,1.13-.47,9.65,9.65,0,0,0,1.33-.84,6.09,6.09,0,0,0,.78-.65,7.06,7.06,0,0,0,.66-.76.31.31,0,0,1,.15-.08ZM155.33,62a7.38,7.38,0,0,1,.29,1.1c0,.08-.05.12-.08.13a1,1,0,0,1-.45.17c-.07-.48-.14-.88-.21-1.19,0-.06.14-.14.37-.24A.1.1,0,0,1,155.33,62Zm3.59-2.51a2.29,2.29,0,0,1-.24-.33,5.35,5.35,0,0,1-.76-1.38c-.3.28-.57.52-.82.72a10.52,10.52,0,0,1-.9.68,2.85,2.85,0,0,1-.26.17Zm0,2.81c.06,0,.09.08.08.12a.11.11,0,0,1-.08.07.14.14,0,0,0-.12.07,4.31,4.31,0,0,1-.65.84s-.07.06-.08.06a.21.21,0,0,1-.12-.05l-.24-.15s0,0,0,0a.05.05,0,0,1,0,0,4,4,0,0,0,.42-.48,3.29,3.29,0,0,0,.35-.54s.05-.08.07-.08Z"/><path class="cls-2" d="M199.85,45c.05,0,.07,0,.05.11l-.06.23c0,.07-.05.11-.1.1l-2.46-.11c-.23.36-.46.7-.7,1l2.18.1c.07,0,.1,0,.09.08l-1.07,4.57a.11.11,0,0,1-.13.08h-.25c-.07,0-.1,0-.08-.09l.11-.48-3.33-.15L194,51c0,.06-.06.08-.13.08h-.25c-.07,0-.1,0-.08-.09l1.06-4.54c0-.08.06-.11.13-.11l1.29.06c.18-.21.33-.38.44-.53a3.8,3.8,0,0,0,.32-.49l-2.59-.12c-.06,0-.07,0-.06-.11l.06-.23c0-.07,0-.11.1-.11Zm-2.32,5.16.35-1.47-3.33-.15-.34,1.47Zm.45-1.91.32-1.36L195,46.78l-.32,1.35Z"/><path class="cls-2" d="M205.13,45.3s.06,0,.07.09a5.8,5.8,0,0,0,.17,1.68,1.54,1.54,0,0,0,.85,1.1.1.1,0,0,1,.06.12.21.21,0,0,1-.06.08l-.28.22a.17.17,0,0,1-.13.08,2.36,2.36,0,0,1-.69-.77v0c-.24,1-.43,1.69-.58,2.11a5.52,5.52,0,0,1-.48,1.14.81.81,0,0,1-.79.38c-.36,0-.54-.09-.53-.19a.72.72,0,0,0-.13-.41v-.06a5.84,5.84,0,0,0,.78.09.44.44,0,0,0,.42-.26,4.8,4.8,0,0,0,.34-.86c.12-.33.27-.87.47-1.62l-1.76-.08a7,7,0,0,1-.46,1.33,4.62,4.62,0,0,1-.69,1A3.52,3.52,0,0,1,201,51a4.67,4.67,0,0,1-.94.39,3.05,3.05,0,0,1-.21-.38,4.51,4.51,0,0,0,.69-.26,3.58,3.58,0,0,0,.79-.51,3.27,3.27,0,0,0,.66-.9,6.43,6.43,0,0,0,.45-1.21l-.83,0c-.06,0-.07,0-.06-.11l.06-.23c0-.07,0-.11.1-.11l3.38.15a2.15,2.15,0,0,1-.15-.38,7.28,7.28,0,0,1-.18-1.68l-.9,0c-.05,0-.06,0-.05-.11l.06-.24c0-.07,0-.1.09-.1Zm-1.94.28a.14.14,0,0,1-.1.11.19.19,0,0,0-.15.08,7.86,7.86,0,0,1-.64,1,7.71,7.71,0,0,1-.67.77,5.63,5.63,0,0,1-1,.75.16.16,0,0,1-.09,0,.1.1,0,0,1-.1-.08,1,1,0,0,0-.11-.21.08.08,0,0,1,0-.09s0,0,.05,0a2,2,0,0,0,.43-.22,4,4,0,0,0,.7-.54,4.51,4.51,0,0,0,.78-1,5.77,5.77,0,0,0,.44-.82.09.09,0,0,1,.09-.07C203.05,45.45,203.2,45.55,203.19,45.58Z"/><path class="cls-2" d="M209.17,45.63a.13.13,0,0,1-.09.1s-.07.06-.09.14l-.39,1.64,1.6.07a.07.07,0,0,1,.06.09l-.07.29c0,.07-.05.1-.1.1l-1.6-.07-.66,2.81h.07c.57-.1,1.12-.22,1.63-.35h.06s0,0,0,.09a4.15,4.15,0,0,1-.11.42c-.9.2-1.81.36-2.72.51-.11.13-.18.19-.22.19s-.08-.22-.11-.64a8.52,8.52,0,0,0,.87-.12l1.24-5.28a.09.09,0,0,1,.12-.08C209,45.53,209.18,45.57,209.17,45.63Zm2.57-.25s.08,0,.07,0,0,.08-.06.08a.11.11,0,0,0-.08.09L211.11,48a3.82,3.82,0,0,0,.6-.19,3.06,3.06,0,0,0,.73-.35,2.8,2.8,0,0,0,.49-.36h0s0,0,.06.07a2.07,2.07,0,0,1,.18.45c0,.06,0,.09-.07.09l-.14,0h0a3.38,3.38,0,0,1-.55.34,5,5,0,0,1-.76.3,5.21,5.21,0,0,1-.65.19l-.56,2.41c-.06.23,0,.34.28.36l.65,0c.3,0,.5,0,.58-.12a3,3,0,0,0,.48-.89.77.77,0,0,0,.22.31c.06,0,.08.07.07.11a3.19,3.19,0,0,1-.56.94.65.65,0,0,1-.55.18l-1.06-.05c-.53,0-.75-.22-.67-.57l1.36-5.81c0-.06,0-.08.05-.08Z"/><path class="cls-2" d="M189.24,62a13.23,13.23,0,0,0-.94,2.93l-.6,0a12.87,12.87,0,0,1,1-2.85,8.7,8.7,0,0,1,2-2.55l-3-.14.14-.61,3.77.17-.14.6A8.43,8.43,0,0,0,189.24,62Z"/><path class="cls-2" d="M193.22,65.18c-1.2-.05-1.55-1.12-1.06-3.22a6,6,0,0,1,.92-2.24,1.85,1.85,0,0,1,1.6-.77,1.19,1.19,0,0,1,1.2.89,5,5,0,0,1-.13,2.28C195.25,64.22,194.41,65.24,193.22,65.18Zm2.09-5.05a.75.75,0,0,0-.77-.57,1.14,1.14,0,0,0-1,.49,4.94,4.94,0,0,0-.78,1.94,4.48,4.48,0,0,0-.15,2,.78.78,0,0,0,.77.59,1.2,1.2,0,0,0,1-.51,5.62,5.62,0,0,0,.78-2A4.46,4.46,0,0,0,195.31,60.13Z"/><path class="cls-2" d="M196.29,65.26l.26-1.12,1,0-.26,1.11Z"/><path class="cls-2" d="M200.33,65.51c-1.19-.06-1.54-1.13-1.05-3.23A5.92,5.92,0,0,1,200.2,60a1.82,1.82,0,0,1,1.59-.76,1.19,1.19,0,0,1,1.21.88,4.9,4.9,0,0,1-.14,2.28C202.37,64.54,201.52,65.56,200.33,65.51Zm2.09-5.06a.77.77,0,0,0-.77-.57,1.16,1.16,0,0,0-1,.49,5,5,0,0,0-.77,1.94,4.34,4.34,0,0,0-.15,2,.75.75,0,0,0,.77.59,1.18,1.18,0,0,0,1-.51,5.19,5.19,0,0,0,.78-2A4.17,4.17,0,0,0,202.42,60.45Z"/><path class="cls-2" d="M204,65.65l-.28-.43,6.69-5.64.27.44Zm2.34-3.3a1.4,1.4,0,0,1-1,.39.94.94,0,0,1-.84-.47,1.68,1.68,0,0,1-.06-1.2,2.44,2.44,0,0,1,.62-1.18,1.39,1.39,0,0,1,1-.44A.9.9,0,0,1,207,60a1.8,1.8,0,0,1,.06,1.21A2.14,2.14,0,0,1,206.38,62.35Zm-.4-2.26a.69.69,0,0,0-.55.26,1.48,1.48,0,0,0-.38.75,1,1,0,0,0,0,.71.48.48,0,0,0,.44.29c.45,0,.76-.29.91-.94S206.43,60.11,206,60.09Zm3.38,5.37a1.4,1.4,0,0,1-1,.38.91.91,0,0,1-.83-.46,1.63,1.63,0,0,1-.06-1.2,2.39,2.39,0,0,1,.62-1.19,1.28,1.28,0,0,1,1-.43.91.91,0,0,1,.83.53,1.84,1.84,0,0,1,.05,1.2A2.31,2.31,0,0,1,209.36,65.46ZM209,63.2a.71.71,0,0,0-.56.25,1.69,1.69,0,0,0-.37.76,1,1,0,0,0,0,.71.45.45,0,0,0,.43.28c.46,0,.76-.28.91-.93S209.41,63.22,209,63.2Z"/><path class="cls-2" d="M186,79.73a2,2,0,0,1-1.34.42,1.24,1.24,0,0,1-1.33-1.48l.6-.19c0,.69.25,1,.87,1.07a1.25,1.25,0,0,0,.9-.29,1.3,1.3,0,0,0,.5-.76,1.16,1.16,0,0,0-.1-.87.82.82,0,0,0-.68-.37l-.65,0,.14-.6.57,0a1.09,1.09,0,0,0,.73-.34,1.43,1.43,0,0,0,.5-.76c.16-.65-.08-1-.69-1a1.2,1.2,0,0,0-1.19.93l-.5-.22a2.26,2.26,0,0,1,.68-.94,1.66,1.66,0,0,1,1.15-.37,1.2,1.2,0,0,1,1,.48,1.48,1.48,0,0,1,.13,1.18,1.89,1.89,0,0,1-1.08,1.32,1,1,0,0,1,.55.63,1.77,1.77,0,0,1,0,1A2.08,2.08,0,0,1,186,79.73Z"/><path class="cls-2" d="M189.66,80.38c-1.2,0-1.54-1.12-1-3.22a5.69,5.69,0,0,1,.92-2.24,1.85,1.85,0,0,1,1.59-.77,1.19,1.19,0,0,1,1.2.89,5,5,0,0,1-.13,2.28C191.7,79.42,190.85,80.44,189.66,80.38Zm2.09-5a.75.75,0,0,0-.77-.57,1.17,1.17,0,0,0-1,.48,5.23,5.23,0,0,0-.78,2,4.4,4.4,0,0,0-.14,2,.75.75,0,0,0,.76.6,1.19,1.19,0,0,0,1-.52,5.29,5.29,0,0,0,.78-2A4.32,4.32,0,0,0,191.75,75.33Z"/><path class="cls-2" d="M192.73,80.46l.26-1.12,1,0-.26,1.11Z"/><path class="cls-2" d="M196.78,80.71c-1.2-.06-1.55-1.13-1.06-3.23a5.91,5.91,0,0,1,.93-2.24,1.81,1.81,0,0,1,1.59-.76,1.18,1.18,0,0,1,1.2.88,4.91,4.91,0,0,1-.14,2.28C198.81,79.74,198,80.76,196.78,80.71Zm2.09-5.06a.77.77,0,0,0-.78-.57,1.13,1.13,0,0,0-1,.49,4.86,4.86,0,0,0-.78,1.94,4.34,4.34,0,0,0-.15,2,.77.77,0,0,0,.77.59,1.2,1.2,0,0,0,1-.51,5.54,5.54,0,0,0,.78-2A4.46,4.46,0,0,0,198.87,75.65Z"/><path class="cls-2" d="M200.49,80.84l-.28-.42,6.68-5.64.28.44Zm2.33-3.29a1.34,1.34,0,0,1-1,.38.91.91,0,0,1-.84-.46,1.74,1.74,0,0,1-.06-1.2,2.45,2.45,0,0,1,.63-1.18,1.35,1.35,0,0,1,1-.44.9.9,0,0,1,.82.53,1.86,1.86,0,0,1,.07,1.21A2.22,2.22,0,0,1,202.82,77.55Zm-.4-2.26a.7.7,0,0,0-.55.26,1.48,1.48,0,0,0-.38.75,1,1,0,0,0,0,.71.45.45,0,0,0,.43.28c.45,0,.76-.28.91-.93S202.87,75.31,202.42,75.29Zm3.38,5.36a1.35,1.35,0,0,1-1,.39.89.89,0,0,1-.83-.46,1.63,1.63,0,0,1-.07-1.2,2.4,2.4,0,0,1,.63-1.19,1.27,1.27,0,0,1,1-.43.91.91,0,0,1,.83.53,1.85,1.85,0,0,1,0,1.2A2.11,2.11,0,0,1,205.8,80.65Zm-.39-2.25a.71.71,0,0,0-.56.25,1.52,1.52,0,0,0-.37.75,1,1,0,0,0,0,.72.46.46,0,0,0,.44.28c.45,0,.75-.28.9-.93S205.86,78.42,205.41,78.4Z"/><path class="cls-2" d="M176.15,95.05l1.09-4.69-1,0,.14-.56a1.43,1.43,0,0,0,1.39-.77l.58,0-1.42,6.07Z"/><path class="cls-2" d="M181,95.35c-1.2,0-1.55-1.12-1.07-3.19s1.33-3.11,2.53-3.06,1.54,1.13,1.06,3.22S182.2,95.41,181,95.35Zm1.89-4.92a.61.61,0,0,0-.62-.5c-.67,0-1.19.72-1.55,2.26s-.2,2.31.47,2.34a1,1,0,0,0,.84-.44,5,5,0,0,0,.7-1.81A4.49,4.49,0,0,0,182.9,90.43Z"/><path class="cls-2" d="M186,95.58c-1.2,0-1.55-1.12-1.06-3.2s1.32-3.1,2.52-3,1.55,1.13,1.06,3.22S187.22,95.63,186,95.58Zm1.89-4.92a.61.61,0,0,0-.62-.5c-.67,0-1.18.72-1.55,2.26s-.2,2.3.47,2.34a1,1,0,0,0,.84-.45,5,5,0,0,0,.7-1.8A4.49,4.49,0,0,0,187.92,90.66Z"/><path class="cls-2" d="M189.09,95.72l.27-1.19,1.07,0-.27,1.19Z"/><path class="cls-2" d="M193.21,95.9c-1.19-.05-1.54-1.11-1.06-3.19s1.33-3.11,2.52-3,1.55,1.12,1.06,3.21S194.4,96,193.21,95.9Zm1.9-4.91a.62.62,0,0,0-.63-.51c-.67,0-1.18.73-1.54,2.26s-.2,2.31.47,2.34a1,1,0,0,0,.83-.44,4.91,4.91,0,0,0,.71-1.81A4.45,4.45,0,0,0,195.11,91Z"/><path class="cls-2" d="M197,96.09l-.34-.52L203.28,90l.34.52Zm2.31-3.34a1.31,1.31,0,0,1-1,.39.9.9,0,0,1-.84-.47,1.62,1.62,0,0,1-.07-1.2,2.37,2.37,0,0,1,.63-1.18,1.36,1.36,0,0,1,1.05-.44.92.92,0,0,1,.83.53,1.86,1.86,0,0,1,.06,1.21A2.22,2.22,0,0,1,199.27,92.75Zm-.43-2.15a.61.61,0,0,0-.46.23,1.37,1.37,0,0,0-.33.66,1,1,0,0,0,0,.64.39.39,0,0,0,.37.24c.37,0,.63-.25.76-.82S199.21,90.62,198.84,90.6Zm3.4,5.27a1.44,1.44,0,0,1-1,.39.93.93,0,0,1-.84-.46,1.65,1.65,0,0,1-.07-1.21,2.41,2.41,0,0,1,.63-1.18,1.32,1.32,0,0,1,1-.44.9.9,0,0,1,.84.53,1.87,1.87,0,0,1,.05,1.21A2.14,2.14,0,0,1,202.24,95.87Zm-.44-2.14a.58.58,0,0,0-.46.22,1.36,1.36,0,0,0-.32.66,1,1,0,0,0,0,.64.39.39,0,0,0,.36.23c.38,0,.64-.26.77-.82S202.18,93.74,201.8,93.73Z"/><polygon class="cls-3" points="140.86 62.84 134.9 62.57 136.44 55.97 142.4 56.24 140.86 62.84"/><path class="cls-2" d="M143.81,76.28q.06.45.06.48a.61.61,0,0,1-.05.12c-.33.59-.63,1.09-.89,1.51-.14.24-.31.49-.51.77a1,1,0,0,0-.1.27c0,.06,0,.1-.07.09s-.16-.17-.35-.53c0,0,0,0,0-.09a.24.24,0,0,1,.06-.11,5.84,5.84,0,0,0,.49-.55c.23-.3.47-.65.72-1s.41-.64.58-.93c0,0,0-.06.05-.06S143.8,76.24,143.81,76.28Zm0-1.47.46.5-.05.07a3.64,3.64,0,0,1-.34.35,5.43,5.43,0,0,0-.62-.65,3.74,3.74,0,0,0-.46-.35,1.67,1.67,0,0,1,.3-.35s.05,0,.08,0C143.4,74.5,143.61,74.67,143.78,74.81Zm.78-1.81c.2.19.36.37.5.53a.18.18,0,0,1-.05.07l-.34.36a4.94,4.94,0,0,0-.67-.7,3.27,3.27,0,0,0-.51-.38,1.5,1.5,0,0,1,.3-.34s.05-.06.08-.06C144.15,72.67,144.38,72.85,144.56,73ZM149,74.5c.06,0,.08,0,.06.13q-.25,1-.45,1.77l.44,0c.05,0,.07,0,.05.13l-.06.25c0,.09-.05.13-.11.13l-.45,0c-.09.33-.18.6-.24.82s-.13.4-.19.56l.38,0c.06,0,.07,0,.06.12l-.06.25c0,.09-.06.13-.12.13l-.43,0c-.1.25-.2.45-.28.61a.9.9,0,0,1-.91.55c-.42,0-.62-.1-.61-.21a1.23,1.23,0,0,0-.14-.5v0a3.64,3.64,0,0,0,.88.16c.2,0,.37-.13.49-.4l.08-.18-2.84-.13-.16.27a.18.18,0,0,1-.17.1l-.38-.06c-.07,0-.09,0-.08-.06.2-.29.4-.58.57-.86a11.88,11.88,0,0,0,.67-1.28l-.36,0c-.06,0-.08,0-.06-.13l.06-.25c0-.08.06-.13.12-.13l.45,0s0,0,0,0a8.65,8.65,0,0,0,.49-1.73.14.14,0,0,1,.15-.12Zm-1.21,3.13c.06-.2.14-.45.22-.74l-2.49-.12-.11.23c-.2.42-.39.8-.58,1.15l2.76.12C147.65,78.09,147.73,77.88,147.8,77.63Zm-1.07-5c0,.05.06.08.05.11a.11.11,0,0,1-.08.09.11.11,0,0,0-.1.08c0,.09-.09.18-.13.26l3.26.15c.06,0,.08,0,.06.13l-.06.25c0,.09-.06.13-.12.13l-3.4-.16a.35.35,0,0,1-.07.12c-.13.22-.27.44-.4.63s-.28.32-.41.45a.28.28,0,0,1-.15,0,2.06,2.06,0,0,0-.26-.12.09.09,0,0,1,0,0,.11.11,0,0,1,0-.06,4.22,4.22,0,0,0,.61-.77,6.13,6.13,0,0,0,.34-.57c.1-.2.23-.48.37-.82,0,0,0,0,0,0Zm1.44,3.78c.1-.41.22-.87.35-1.39l-2.37-.11c-.14.52-.28,1-.42,1.39Zm-1.29,1a4.52,4.52,0,0,1,.38.43l0,0c-.2.21-.29.31-.3.31a6.52,6.52,0,0,0-.5-.55,4.18,4.18,0,0,0-.4-.29l.28-.31s.05,0,.07,0A5.58,5.58,0,0,1,146.88,77.38Zm.55-1.85c.15.15.27.3.38.41s0,0-.05.07l-.3.3a6.39,6.39,0,0,0-.5-.54,2.12,2.12,0,0,0-.39-.29s.09-.13.27-.32a.1.1,0,0,1,.07,0C147.13,75.27,147.29,75.41,147.43,75.53Z"/><path class="cls-2" d="M153.32,72.93c.05,0,.07.08.06.11a.13.13,0,0,1-.11.12.2.2,0,0,0-.2.14l-.38.7,1.52.07a.17.17,0,0,1,.12.05,1.26,1.26,0,0,1,.09.28c-.33.77-.61,1.37-.83,1.77a11.55,11.55,0,0,1-.78,1.32,7.75,7.75,0,0,1-.85,1,5.8,5.8,0,0,1-1.11.87,4.25,4.25,0,0,1-1,.46.13.13,0,0,1-.14-.08,2.49,2.49,0,0,0-.11-.29.09.09,0,0,1,0-.08s0-.08.06-.09a4.81,4.81,0,0,0,.73-.29,4.18,4.18,0,0,0,1.18-.85,6.38,6.38,0,0,0,.51-.53,4.83,4.83,0,0,0-.77-.83s0,0,0,0a1.8,1.8,0,0,1,.34-.37s.08-.07.1-.06a7.06,7.06,0,0,1,.75.81l0,0a10.81,10.81,0,0,0,.73-1.28c.16-.3.34-.71.55-1.22l-1.38-.07a4.12,4.12,0,0,1-.22.36c-.27.38-.54.75-.81,1.08a8.84,8.84,0,0,1-.81.81.39.39,0,0,1-.17,0,2.29,2.29,0,0,0-.27-.14.11.11,0,0,1,0-.06.17.17,0,0,1,.06-.1,6.66,6.66,0,0,0,1.24-1.29,7.22,7.22,0,0,0,.65-1,12.87,12.87,0,0,0,.71-1.37c0-.06.07-.09.1-.09Zm3,.08c0,.08-.06.12-.11.12s-.08.06-.11.16l-.47,2a12.07,12.07,0,0,1,1,1.82.19.19,0,0,1,0,.15.1.1,0,0,1-.06,0,1.68,1.68,0,0,1-.39.28.09.09,0,0,1-.09-.07,12,12,0,0,0-.72-1.4l-.94,4a.12.12,0,0,1-.13.09l-.29,0c-.08,0-.11,0-.09-.1L155.7,73c0-.07.06-.1.14-.1C156.2,72.91,156.37,73,156.36,73Z"/><path class="cls-2" d="M160.82,73.47a.08.08,0,0,1-.08.07.28.28,0,0,0-.19.08,14.62,14.62,0,0,1-1,1.49l-1.21,5.18a.13.13,0,0,1-.14.09H158c-.08,0-.11,0-.09-.11l1-4.3c-.22.26-.5.54-.83.86a.16.16,0,0,1-.14-.07c0-.07-.12-.15-.17-.23s0,0,0-.1c.26-.25.54-.53.82-.82a9.39,9.39,0,0,0,1-1.27,9.71,9.71,0,0,0,.7-1.24s0,0,.08,0C160.65,73.29,160.83,73.44,160.82,73.47Zm3.14,3c.07,0,.1,0,.08.11l-.67,2.87c0,.06-.06.09-.13.09l-.7,0a2.49,2.49,0,0,0,.42.39,5,5,0,0,0,.65.35s.06,0,0,.07a1.85,1.85,0,0,1-.41.39l-.07,0a4.16,4.16,0,0,1-1.14-.9.05.05,0,0,1,0,0s.09-.12.25-.25l-1.28,0,.16.17a.15.15,0,0,1,0,.12s0,0-.07,0a.46.46,0,0,0-.15,0,6.5,6.5,0,0,1-.63.37,7.31,7.31,0,0,1-.94.38c-.07,0-.11,0-.11-.06l-.21-.24s0,0,0-.07,0,0,0,0a2.28,2.28,0,0,0,.44-.14,5.36,5.36,0,0,0,.68-.32,4.75,4.75,0,0,0,.42-.27l-.76,0c-.08,0-.11,0-.1-.1l.67-2.87a.13.13,0,0,1,.14-.09Zm-1.37-2.67.12-.51a.12.12,0,0,1,.14-.09c.36,0,.53,0,.52.12a.16.16,0,0,1-.1.12c-.06,0-.09.06-.11.16l-.06.22,1.78.08s0,0,0,.09l-.06.26c0,.07,0,.09-.07.09L163,74.24l-.1.44,1.57.07s.05,0,0,.1l-.06.25c0,.07,0,.1-.08.1l-1.57-.07-.1.43,2.09.1s0,0,0,.1l-.06.25c0,.06-.05.09-.08.09l-4.62-.21s-.05,0,0-.1l.06-.25c0-.06,0-.09.08-.09l2,.09.1-.44L160.83,75s-.05,0,0-.1l.06-.25c0-.07,0-.1.08-.1l1.45.07.11-.44-1.62-.08s-.05,0,0-.09l.06-.26c0-.05,0-.09.08-.08Zm.45,4.84-2.59-.12-.1.44,2.59.11Zm.11-.45.1-.41-2.6-.12-.09.42Zm.2-.85.1-.44-2.59-.12-.1.44Z"/><path class="cls-2" d="M168.7,75.2a6,6,0,0,0,.33-.68l.4-1s0-.06,0-.06c.34.18.51.28.5.31a.14.14,0,0,1-.09.12.19.19,0,0,0-.11.16c-.19.42-.38.83-.59,1.21l2.84.13s.07.05,0,.13l-.06.25c0,.09-.06.13-.11.13l-2-.09a6.47,6.47,0,0,0,.32,1l1.95.08c.06,0,.08.06.06.14l-.06.25q0,.14-.12.12l-1.59-.07a4,4,0,0,0,.61.92,2.56,2.56,0,0,0,.78.64s0,.06-.08.08l-.32.28s-.06.07-.07.07a3.84,3.84,0,0,1-.93-1,.15.15,0,0,1,0-.07.25.25,0,0,1,0,.08,15.46,15.46,0,0,1-.44,1.51,2.88,2.88,0,0,1-.42.8.83.83,0,0,1-.78.26c-.36,0-.52-.09-.51-.21a1.42,1.42,0,0,0-.1-.49v-.06a2.67,2.67,0,0,0,.74.16.39.39,0,0,0,.38-.17,1.83,1.83,0,0,0,.28-.57,8.64,8.64,0,0,0,.28-.88l-1.33-.06-.17.31a2.32,2.32,0,0,1-.38.55,4.73,4.73,0,0,1-.44.47,4.29,4.29,0,0,1-.55.4c-.2.11-.39.2-.55.27l-.51.15a.1.1,0,0,1-.09-.06,2.71,2.71,0,0,0-.18-.34.16.16,0,0,1,0-.09s0,0,0,0l.52-.12a4.68,4.68,0,0,0,.45-.19,2.54,2.54,0,0,0,.54-.36,2.65,2.65,0,0,0,.43-.4,2.72,2.72,0,0,0,.29-.38,1.37,1.37,0,0,0,.13-.2l-1.1,0c-.06,0-.08,0-.06-.13l0-.18a8.18,8.18,0,0,1-1.43.82c-.07,0-.11,0-.13,0a2.55,2.55,0,0,0-.17-.33.16.16,0,0,1,0-.12,4.52,4.52,0,0,0,1.4-.68,4.07,4.07,0,0,0,.78-.61l.09-.11L165.62,77c-.05,0-.07,0-.05-.13l.05-.25c0-.08.06-.13.12-.12l2,.09a9.5,9.5,0,0,0,.63-.93l-2-.09c-.06,0-.08,0-.06-.13l.06-.25c0-.08.06-.13.11-.13Zm-.76-1.08.34.46-.06.07-.33.36a5.59,5.59,0,0,0-.44-.61,3.1,3.1,0,0,0-.36-.33,3,3,0,0,1,.31-.34.15.15,0,0,1,.08,0A4,4,0,0,1,167.94,74.12Zm2.36,4h0a4.76,4.76,0,0,1-.48-.92l-1.9-.09a5.69,5.69,0,0,1-.85.85Zm-.89-2.4-.51,0a8.22,8.22,0,0,1-.58.93l1.34.06A6.66,6.66,0,0,1,169.41,75.75Zm2.49-1.49s0,0-.1,0-.14,0-.16,0a5.27,5.27,0,0,1-1.11.82q-.08,0-.09-.09a.71.71,0,0,0-.11-.21.1.1,0,0,1,0-.09.09.09,0,0,1,.05-.07,3.5,3.5,0,0,0,.54-.32,3.57,3.57,0,0,0,.63-.54l.07,0A2.27,2.27,0,0,1,171.9,74.26Z"/><polygon class="cls-4" points="137.14 78.72 131.18 78.45 132.73 71.85 138.69 72.12 137.14 78.72"/><line class="cls-5" x1="124.8" y1="82.38" x2="212.25" y2="86.34"/><line class="cls-5" x1="131.86" y1="52.22" x2="219.31" y2="56.18"/><path class="cls-6" d="M46.3,53.33,48,54l-1.7-.71a43.45,43.45,0,0,0-2.84,8.25C39,80.85,49.4,97.1,66.79,97.89S102,83.7,106.46,64.43c4.33-18.52-5.16-34.24-21.35-36.14l-.89,0,.89,0c-.65-.07-1.31-.14-2-.17C68.31,27.45,53.23,38.22,46.3,53.33Z"/><path class="cls-3" d="M85.11,28.29,89.44,15c-1-.13-2.11-.24-3.19-.29L83.12,28.12C83.8,28.15,84.46,28.22,85.11,28.29Z"/><path class="cls-3" d="M89.44,15,85.11,28.29c16.19,1.9,25.68,17.62,21.35,36.14C102,83.7,84.19,98.68,66.79,97.89S39,80.85,43.46,61.58a43.45,43.45,0,0,1,2.84-8.25L35.65,48.89A60.8,60.8,0,0,0,31.38,61c-6.24,26.65,8.22,49.13,32.29,50.22S112.3,91.63,118.54,65C124.49,39.53,111.57,17.89,89.44,15Z"/><path class="cls-4" d="M83.12,28.12l3.13-13.37C66,13.83,45.39,28.37,35.65,48.89L46.3,53.33C53.23,38.22,68.31,27.45,83.12,28.12Z"/></g></g></svg>