<svg xmlns="http://www.w3.org/2000/svg" viewBox="0 0 34.87 34.09"><defs><style>.cls-1{fill:#cfe2cc;}</style></defs><g id="圖層_2" data-name="圖層 2"><g id="圖層_1-2" data-name="圖層 1"><path class="cls-1" d="M11.28,16.62A44.05,44.05,0,0,1,8.54,25.9c.5.32,1.1.75,1.85,1.18,2.38,1.49,5.84,1.67,10,1.67a112,112,0,0,0,14.52-1A21.22,21.22,0,0,0,33.38,33c-3.1.21-9.15.46-13.28.46-4.76,0-7.72-.39-10.28-1.82-1.49-.85-2.74-2-3.45-2s-2.14,2.53-2.95,4.45L0,29.11a16,16,0,0,1,3.84-3.17,35.55,35.55,0,0,0,1.82-5.48H1.21c.78-2.1,1.64-4.84,2.38-7.58H.75V8.29h9c-.67,2.49-1.45,5.27-2.2,7.76H8.4l.74-.18ZM4.63,7.76C4.2,6.08,3.2,3.42,2.6,1.42L7.15,0c.71,2,1.64,4.41,2.17,6.05ZM17.19,27.47H12.35V9H19C17.79,8.5,16.55,8,15.48,7.54L18.61,5H12.85V1.14H28.64l1-.25,3,2.45a45.81,45.81,0,0,1-6,4.77c.68.32,1.32.64,1.85.93h4.24V23.2c0,2-.32,3-1.6,3.7s-2.81.71-4.81.71a15.77,15.77,0,0,0-1.24-4c.82,0,1.92,0,2.24,0s.5-.15.5-.5v-.68H24.8v4.88H20.21V22.45h-3Zm0-14.77V14h3V12.7Zm3,6.09V17.47h-3v1.32ZM19.18,5c1,.36,2.21.82,3.38,1.28A20,20,0,0,0,24.34,5ZM24.8,12.7V14h3.1V12.7Zm3.1,6.09V17.47H24.8v1.32Z"/></g></g></svg>