<svg xmlns="http://www.w3.org/2000/svg" viewBox="0 0 34.37 34.02"><defs><style>.cls-1{fill:#cfe2cc;}</style></defs><g id="圖層_2" data-name="圖層 2"><g id="圖層_1-2" data-name="圖層 1"><path class="cls-1" d="M27.75,20.53c2.14,3.31,5.16,7.72,6.62,10.5L29.68,33.7C28.4,30.82,25.41,26,23.27,22.45L27,20.53H23.7A20.23,20.23,0,0,1,13.88,34a21.57,21.57,0,0,0-3.7-4,14.26,14.26,0,0,0,8.25-9.47H12V15.62h7.11c.07-.89.07-1.74.07-2.6V10H13.52a29.5,29.5,0,0,1,1,2.95l-3.74,1.71a26.36,26.36,0,0,0-1-3.34V33.8H4.7V13.63a35.48,35.48,0,0,1-.93,4.3L0,16.58A46.34,46.34,0,0,0,1.67,7.15l3,.43V0H9.82V6.8l2-.82c.57,1.17,1.17,2.6,1.71,3.91V5.23h5.72V0h5.24V5.23h7.61V15.62h1.78v4.91Zm-3.3-7.47c0,.85,0,1.71-.08,2.56H27V10H24.45Z"/></g></g></svg>